<?xml version="1.0" encoding="UTF-8" standalone="no"?>
<!-- Created with Inkscape (http://www.inkscape.org/) -->

<svg
   xmlns:dc="http://purl.org/dc/elements/1.1/"
   xmlns:cc="http://creativecommons.org/ns#"
   xmlns:rdf="http://www.w3.org/1999/02/22-rdf-syntax-ns#"
   xmlns:svg="http://www.w3.org/2000/svg"
   xmlns="http://www.w3.org/2000/svg"
   xmlns:sodipodi="http://sodipodi.sourceforge.net/DTD/sodipodi-0.dtd"
   xmlns:inkscape="http://www.inkscape.org/namespaces/inkscape"
   id="svg1919"
   sodipodi:version="0.32"
   inkscape:version="0.48.1 "
   width="1039.2576"
   height="505.21875"
   version="1.0"
   sodipodi:docname="accelerate.svg"
   inkscape:export-filename="C:\Documents and Settings\Soundar\My Documents\Visual Studio 2008\Projects\ControlVUE\trunk\code\Figures\actuator\accelerate.png"
   inkscape:export-xdpi="4.1700001"
   inkscape:export-ydpi="4.1700001">
  <defs
     id="defs1922" />
  <sodipodi:namedview
     inkscape:window-height="968"
     inkscape:window-width="1280"
     inkscape:pageshadow="2"
     inkscape:pageopacity="0.0"
     guidetolerance="10.0"
     gridtolerance="10.0"
     objecttolerance="10.0"
     borderopacity="1.0"
     bordercolor="#666666"
     pagecolor="#ffffff"
     id="base"
     showguides="true"
     inkscape:guide-bbox="true"
     inkscape:zoom="0.70049553"
     inkscape:cx="356.10594"
     inkscape:cy="-12.526864"
     inkscape:window-x="1276"
     inkscape:window-y="-4"
     inkscape:current-layer="svg1919"
     showgrid="false"
     inkscape:window-maximized="1"
     borderlayer="true"
     fit-margin-top="0"
     fit-margin-left="0"
     fit-margin-right="0"
     fit-margin-bottom="0" />
  <metadata
     id="metadata11">
    <rdf:RDF>
      <cc:Work>
        <dc:format>image/svg+xml</dc:format>
        <dc:type
           rdf:resource="http://purl.org/dc/dcmitype/StillImage" />
        <cc:license
           rdf:resource="http://creativecommons.org/licenses/publicdomain/" />
        <dc:publisher>
          <cc:Agent
             rdf:about="http://openclipart.org/">
            <dc:title>Open Clip Art Library</dc:title>
          </cc:Agent>
        </dc:publisher>
        <dc:title></dc:title>
        <dc:date>2006-12-20T04:51:35</dc:date>
        <dc:description />
        <dc:source>http://openclipart.org/detail/2163/jogging-by-machovka</dc:source>
        <dc:creator>
          <cc:Agent>
            <dc:title>Machovka</dc:title>
          </cc:Agent>
        </dc:creator>
        <dc:subject>
          <rdf:Bag>
            <rdf:li>activity</rdf:li>
            <rdf:li>cartoon</rdf:li>
            <rdf:li>clip art</rdf:li>
            <rdf:li>clipart</rdf:li>
            <rdf:li>colour</rdf:li>
            <rdf:li>contour</rdf:li>
            <rdf:li>jogging</rdf:li>
            <rdf:li>man</rdf:li>
            <rdf:li>people</rdf:li>
            <rdf:li>run</rdf:li>
            <rdf:li>running</rdf:li>
            <rdf:li>sport</rdf:li>
            <rdf:li>training</rdf:li>
          </rdf:Bag>
        </dc:subject>
      </cc:Work>
      <cc:License
         rdf:about="http://creativecommons.org/licenses/publicdomain/">
        <cc:permits
           rdf:resource="http://creativecommons.org/ns#Reproduction" />
        <cc:permits
           rdf:resource="http://creativecommons.org/ns#Distribution" />
        <cc:permits
           rdf:resource="http://creativecommons.org/ns#DerivativeWorks" />
      </cc:License>
    </rdf:RDF>
  </metadata>
  <g
     transform="matrix(-1,0,0,1,431.375,0)"
     id="g3043"
     style="fill:#cccccc">
    <path
       inkscape:connector-curvature="0"
       style="fill:#cccccc;fill-rule:evenodd;stroke:#000000;stroke-width:2.88804102px;stroke-linecap:butt;stroke-linejoin:miter;stroke-opacity:1"
       d="m 166.03613,237.39007 -38.92115,2.55398 -18.95897,9.20865 -10.292029,8.12527 -14.083806,11.37539 -11.917074,10.8337 -8.125281,4.33348 -5.41685,4.3335 -1.08337,10.292 -0.541687,14.08382 1.625057,7.58359 2.166739,25.81845 7.04191,34.30863 5.958537,27.62593 2.166741,23.29249 -1.083371,8.12527 -13.000447,3.79179 -8.125278,4.87516 -7.583594,5.41687 -9.750333,4.33348 -11.917076,0 -9.750333,0.54168 -11.3753926,1.62507 -1.6250545,5.41684 2.7084251,3.79179 14.625505,2.70844 -8.666968,-1.08339 16.792246,-0.54169 11.375387,0.54171 15.708872,-0.54168 19.500671,0.54166 23.834144,1.08339 9.20866,-2.16676 3.25012,-8.66695 -3.7918,-9.20866 -10.369018,-7.86241 1.702038,-11.09657 -3.791789,-12.45875 0,-11.37539 0,-12.45877 0,-10.29203 4.87518,-23.83414 4.333479,-21.12573 -0.54168,-11.37538 0,-10.83371 0,-3.7918 17.87558,-2.70843 24.91753,-1.08336 19.50069,0 12.45875,0 23.29245,-5.41684 11.9171,22.20909 10.292,10.83371 13.00046,14.6255 12.45874,10.83371 23.83417,22.75077 8.66695,12.45875 11.37539,0 15.16721,3.7918 32.50109,13.00045 47.6683,26.00089 14.6255,4.87516 5.95855,11.37539 3.25012,13.00046 5.41683,20.04234 1.0834,9.20866 5.41683,2.70843 5.41687,-0.54171 1.62504,-9.20863 0,-13.54214 -1.08336,-17.33394 -1.62507,-14.6255 -2.7084,-11.91707 -19.05195,2.15079 -12.90749,-12.98449 -13.00046,-13.54211 -16.25054,-16.79226 -15.16719,-16.25054 -17.33393,-8.66698 -16.79226,-1.08337 -13.00043,-11.37538 -4.33347,-11.9171 -4.87519,-22.75077 -7.58359,-21.12573 -5.95852,-8.66696 -5.95855,-4.87516 0.54168,-20.58405 -2.70843,-16.25054 -4.87516,-14.08382 -9.75034,-11.37539 -10.292,-12.27631 -5.41687,-27.8084 1.62507,-28.70932 0,-14.6255 1.08337,-14.6255 0.54168,-8.66697 11.91706,-1.08337 10.29203,4.33348 8.66695,6.50023 8.1253,8.12528 10.83371,15.16718 5.95852,13.00045 5.41687,13.00044 9.20863,8.12528 23.83417,3.7918 6.50023,-16.25056 -11.9171,-11.37539 -14.6255,-1.08337 -8.12528,-10.8337 -5.41683,-13.54213 -2.84195,-13.16911 -6.12845,-13.023 -9.19272,-10.72482 -13.78904,-8.809673 -16.47027,-6.894528 -16.08723,-4.213323 -13.34032,-0.405579 -12.44281,-4.716511 1.26924,-8.666965 -0.38301,-7.277557 4.97936,-10.724819 2.29818,-10.341792 -0.76605,-16.470261 -6.89453,-12.6399673 -11.10784,-7.2775572 -13.78907,-0.7660586 -12.63997,1.5321173 -9.95875,4.2133226 -4.59634,5.3624102 0.38301,3.830294 -1.91515,5.36241 -2.29816,6.128469 -0.38304,4.213323 0,3.064235 -1.5321,5.745439 -2.68123,3.830294 -1.91515,3.064234 2.68123,1.149088 2.6812,2.681206 -0.76605,5.362407 -0.38304,3.830293 2.29818,1.532118 1.46641,2.298176 -0.44875,4.979381 -3.69889,7.660586 0.76609,2.298176 5.3624,0 6.12848,0 4.97935,0 3.06424,3.064235 0,5.74544 0,7.660586 -0.79669,9.575731 -7.62994,19.91753 -9.1927,5.36241 -8.04362,5.36241 -5.74544,2.29817 -11.87392,-11.10785 -6.5115,-9.95876 -5.74544,-8.42664 -1.91514,-7.66059 -0.76606,-12.639968 -3.44725,-10.724821 -4.97939,-7.660586 -8.42664,-6.894528 -9.192711,-0.38303 -7.660587,1.532118 -3.830293,6.894528 0,10.341791 1.149088,6.894528 3.447264,6.511499 5.36241,14.555119 7.277552,5.36241 7.277577,6.51149 5.3624,12.25694 5.74544,16.85329 13.40602,22.2157 8.04363,10.34179 12.63994,5.36241 11.10787,2.29818 7.66059,-2.68121 4.59635,-4.21332 -3.06425,33.70658 0.76606,13.023 0,7.66058 -4.59635,-1.14909 z"
       id="path3045"
       sodipodi:nodetypes="cccccccccccccccccccccccccccccccccccccccccccccccccccccccccccccccccccccccccccccccccccccccccccccccccccccccccccccccccccccccccccccccccccccccccccccccccccccccccccccccccccccccccccccccccccccccccc" />
    <path
       inkscape:connector-curvature="0"
       style="fill:#cccccc;fill-rule:evenodd;stroke:#000000;stroke-width:2.88804102px;stroke-linecap:butt;stroke-linejoin:miter;stroke-opacity:1"
       d="m 173.69672,183.76597 38.30293,-39.83505 7.66059,-19.91752 0,-24.513877 -21.44963,-9.192703 -18.38541,15.32117 -13.78907,19.91753 0,0"
       id="path3047"
       sodipodi:nodetypes="cccccccc" />
    <path
       inkscape:connector-curvature="0"
       style="fill:#cccccc;fill-rule:evenodd;stroke:#000000;stroke-width:2.88804102px;stroke-linecap:butt;stroke-linejoin:miter;stroke-opacity:1"
       d="m 170.63248,237.39007 3.06424,30.64236 3.06424,16.85328 6.12845,10.72482 16.85331,13.78907 0,0"
       id="path3049" />
    <path
       inkscape:connector-curvature="0"
       style="fill:#cccccc;fill-rule:evenodd;stroke:#000000;stroke-width:2.88804102px;stroke-linecap:butt;stroke-linejoin:miter;stroke-opacity:1"
       d="m 164.50403,128.60975 24.51386,39.83505 -16.85328,13.78905 -1.53213,56.68834 -41.36715,-1.53212 3.06422,76.60588 47.49565,-3.06424 15.32117,-6.12849 18.38539,26.046 26.046,27.57811 54.39015,-23.74781 -9.19269,-31.4084 -12.25693,-14.55512 -0.76605,-26.81205 -6.89454,-22.98176 -12.25693,-17.61935 -8.42667,-10.72482 -4.59634,-25.27993 0.76605,-22.98176 1.53213,-33.70658 0,-9.95876 14.55512,0 8.42664,3.83029 11.49088,-29.110226 -21.44965,-7.660586 -15.32117,-3.830294 -16.14167,-0.02255 -8.3722,-5.416853 -7.66059,0.84305 -12.25693,4.596352 -16.08725,4.596352 -3.8303,0 -0.76605,23.747815 -9.95874,18.38541 z"
       id="path3051"
       sodipodi:nodetypes="cccccccccccccccccccccccccccccccccc" />
    <path
       inkscape:connector-curvature="0"
       style="fill:#cccccc;fill-rule:evenodd;stroke:#000000;stroke-width:0.57760823;stroke-linecap:butt;stroke-linejoin:miter;stroke-miterlimit:4;stroke-opacity:1;stroke-dasharray:none"
       d="m 189.01789,166.91268 23.3648,-17.23632 9.57573,-12.63997 4.97936,-18.76843 -5.74544,-16.47026 -11.49088,-4.979382 -14.17205,3.447262 -13.40605,9.19271 -11.49088,10.72482 -4.59635,6.12847"
       id="path3053"
       sodipodi:nodetypes="cccccccccc" />
  </g>
  <g
     style="fill:#999999"
     id="g3031"
     transform="matrix(-1,0,0,1,503.61852,0)">
    <path
       sodipodi:nodetypes="cccccccccccccccccccccccccccccccccccccccccccccccccccccccccccccccccccccccccccccccccccccccccccccccccccccccccccccccccccccccccccccccccccccccccccccccccccccccccccccccccccccccccccccccccccccccccc"
       id="path3033"
       d="m 166.03613,237.39007 -38.92115,2.55398 -18.95897,9.20865 -10.292029,8.12527 -14.083806,11.37539 -11.917074,10.8337 -8.125281,4.33348 -5.41685,4.3335 -1.08337,10.292 -0.541687,14.08382 1.625057,7.58359 2.166739,25.81845 7.04191,34.30863 5.958537,27.62593 2.166741,23.29249 -1.083371,8.12527 -13.000447,3.79179 -8.125278,4.87516 -7.583594,5.41687 -9.750333,4.33348 -11.917076,0 -9.750333,0.54168 -11.3753926,1.62507 -1.6250545,5.41684 2.7084251,3.79179 14.625505,2.70844 -8.666968,-1.08339 16.792246,-0.54169 11.375387,0.54171 15.708872,-0.54168 19.500671,0.54166 23.834144,1.08339 9.20866,-2.16676 3.25012,-8.66695 -3.7918,-9.20866 -10.369018,-7.86241 1.702038,-11.09657 -3.791789,-12.45875 0,-11.37539 0,-12.45877 0,-10.29203 4.87518,-23.83414 4.333479,-21.12573 -0.54168,-11.37538 0,-10.83371 0,-3.7918 17.87558,-2.70843 24.91753,-1.08336 19.50069,0 12.45875,0 23.29245,-5.41684 11.9171,22.20909 10.292,10.83371 13.00046,14.6255 12.45874,10.83371 23.83417,22.75077 8.66695,12.45875 11.37539,0 15.16721,3.7918 32.50109,13.00045 47.6683,26.00089 14.6255,4.87516 5.95855,11.37539 3.25012,13.00046 5.41683,20.04234 1.0834,9.20866 5.41683,2.70843 5.41687,-0.54171 1.62504,-9.20863 0,-13.54214 -1.08336,-17.33394 -1.62507,-14.6255 -2.7084,-11.91707 -19.05195,2.15079 -12.90749,-12.98449 -13.00046,-13.54211 -16.25054,-16.79226 -15.16719,-16.25054 -17.33393,-8.66698 -16.79226,-1.08337 -13.00043,-11.37538 -4.33347,-11.9171 -4.87519,-22.75077 -7.58359,-21.12573 -5.95852,-8.66696 -5.95855,-4.87516 0.54168,-20.58405 -2.70843,-16.25054 -4.87516,-14.08382 -9.75034,-11.37539 -10.292,-12.27631 -5.41687,-27.8084 1.62507,-28.70932 0,-14.6255 1.08337,-14.6255 0.54168,-8.66697 11.91706,-1.08337 10.29203,4.33348 8.66695,6.50023 8.1253,8.12528 10.83371,15.16718 5.95852,13.00045 5.41687,13.00044 9.20863,8.12528 23.83417,3.7918 6.50023,-16.25056 -11.9171,-11.37539 -14.6255,-1.08337 -8.12528,-10.8337 -5.41683,-13.54213 -2.84195,-13.16911 -6.12845,-13.023 -9.19272,-10.72482 -13.78904,-8.809673 -16.47027,-6.894528 -16.08723,-4.213323 -13.34032,-0.405579 -12.44281,-4.716511 1.26924,-8.666965 -0.38301,-7.277557 4.97936,-10.724819 2.29818,-10.341792 -0.76605,-16.470261 -6.89453,-12.6399673 -11.10784,-7.2775572 -13.78907,-0.7660586 -12.63997,1.5321173 -9.95875,4.2133226 -4.59634,5.3624102 0.38301,3.830294 -1.91515,5.36241 -2.29816,6.128469 -0.38304,4.213323 0,3.064235 -1.5321,5.745439 -2.68123,3.830294 -1.91515,3.064234 2.68123,1.149088 2.6812,2.681206 -0.76605,5.362407 -0.38304,3.830293 2.29818,1.532118 1.46641,2.298176 -0.44875,4.979381 -3.69889,7.660586 0.76609,2.298176 5.3624,0 6.12848,0 4.97935,0 3.06424,3.064235 0,5.74544 0,7.660586 -0.79669,9.575731 -7.62994,19.91753 -9.1927,5.36241 -8.04362,5.36241 -5.74544,2.29817 -11.87392,-11.10785 -6.5115,-9.95876 -5.74544,-8.42664 -1.91514,-7.66059 -0.76606,-12.639968 -3.44725,-10.724821 -4.97939,-7.660586 -8.42664,-6.894528 -9.192711,-0.38303 -7.660587,1.532118 -3.830293,6.894528 0,10.341791 1.149088,6.894528 3.447264,6.511499 5.36241,14.555119 7.277552,5.36241 7.277577,6.51149 5.3624,12.25694 5.74544,16.85329 13.40602,22.2157 8.04363,10.34179 12.63994,5.36241 11.10787,2.29818 7.66059,-2.68121 4.59635,-4.21332 -3.06425,33.70658 0.76606,13.023 0,7.66058 -4.59635,-1.14909 z"
       style="fill:#999999;fill-rule:evenodd;stroke:#000000;stroke-width:2.88804102px;stroke-linecap:butt;stroke-linejoin:miter;stroke-opacity:1"
       inkscape:connector-curvature="0" />
    <path
       sodipodi:nodetypes="cccccccc"
       id="path3035"
       d="m 173.69672,183.76597 38.30293,-39.83505 7.66059,-19.91752 0,-24.513877 -21.44963,-9.192703 -18.38541,15.32117 -13.78907,19.91753 0,0"
       style="fill:#999999;fill-rule:evenodd;stroke:#000000;stroke-width:2.88804102px;stroke-linecap:butt;stroke-linejoin:miter;stroke-opacity:1"
       inkscape:connector-curvature="0" />
    <path
       id="path3037"
       d="m 170.63248,237.39007 3.06424,30.64236 3.06424,16.85328 6.12845,10.72482 16.85331,13.78907 0,0"
       style="fill:#999999;fill-rule:evenodd;stroke:#000000;stroke-width:2.88804102px;stroke-linecap:butt;stroke-linejoin:miter;stroke-opacity:1"
       inkscape:connector-curvature="0" />
    <path
       sodipodi:nodetypes="cccccccccccccccccccccccccccccccccc"
       id="path3039"
       d="m 164.50403,128.60975 24.51386,39.83505 -16.85328,13.78905 -1.53213,56.68834 -41.36715,-1.53212 3.06422,76.60588 47.49565,-3.06424 15.32117,-6.12849 18.38539,26.046 26.046,27.57811 54.39015,-23.74781 -9.19269,-31.4084 -12.25693,-14.55512 -0.76605,-26.81205 -6.89454,-22.98176 -12.25693,-17.61935 -8.42667,-10.72482 -4.59634,-25.27993 0.76605,-22.98176 1.53213,-33.70658 0,-9.95876 14.55512,0 8.42664,3.83029 11.49088,-29.110226 -21.44965,-7.660586 -15.32117,-3.830294 -16.14167,-0.02255 -8.3722,-5.416853 -7.66059,0.84305 -12.25693,4.596352 -16.08725,4.596352 -3.8303,0 -0.76605,23.747815 -9.95874,18.38541 z"
       style="fill:#999999;fill-rule:evenodd;stroke:#000000;stroke-width:2.88804102px;stroke-linecap:butt;stroke-linejoin:miter;stroke-opacity:1"
       inkscape:connector-curvature="0" />
    <path
       sodipodi:nodetypes="cccccccccc"
       id="path3041"
       d="m 189.01789,166.91268 23.3648,-17.23632 9.57573,-12.63997 4.97936,-18.76843 -5.74544,-16.47026 -11.49088,-4.979382 -14.17205,3.447262 -13.40605,9.19271 -11.49088,10.72482 -4.59635,6.12847"
       style="fill:#999999;fill-rule:evenodd;stroke:#000000;stroke-width:0.57760823;stroke-linecap:butt;stroke-linejoin:miter;stroke-miterlimit:4;stroke-opacity:1;stroke-dasharray:none"
       inkscape:connector-curvature="0" />
  </g>
  <g
     transform="matrix(-1,0,0,1,592.14472,0)"
     id="g3019"
     style="fill:#666666">
    <path
       inkscape:connector-curvature="0"
       style="fill:#666666;fill-rule:evenodd;stroke:#000000;stroke-width:2.88804102px;stroke-linecap:butt;stroke-linejoin:miter;stroke-opacity:1"
       d="m 166.03613,237.39007 -38.92115,2.55398 -18.95897,9.20865 -10.292029,8.12527 -14.083806,11.37539 -11.917074,10.8337 -8.125281,4.33348 -5.41685,4.3335 -1.08337,10.292 -0.541687,14.08382 1.625057,7.58359 2.166739,25.81845 7.04191,34.30863 5.958537,27.62593 2.166741,23.29249 -1.083371,8.12527 -13.000447,3.79179 -8.125278,4.87516 -7.583594,5.41687 -9.750333,4.33348 -11.917076,0 -9.750333,0.54168 -11.3753926,1.62507 -1.6250545,5.41684 2.7084251,3.79179 14.625505,2.70844 -8.666968,-1.08339 16.792246,-0.54169 11.375387,0.54171 15.708872,-0.54168 19.500671,0.54166 23.834144,1.08339 9.20866,-2.16676 3.25012,-8.66695 -3.7918,-9.20866 -10.369018,-7.86241 1.702038,-11.09657 -3.791789,-12.45875 0,-11.37539 0,-12.45877 0,-10.29203 4.87518,-23.83414 4.333479,-21.12573 -0.54168,-11.37538 0,-10.83371 0,-3.7918 17.87558,-2.70843 24.91753,-1.08336 19.50069,0 12.45875,0 23.29245,-5.41684 11.9171,22.20909 10.292,10.83371 13.00046,14.6255 12.45874,10.83371 23.83417,22.75077 8.66695,12.45875 11.37539,0 15.16721,3.7918 32.50109,13.00045 47.6683,26.00089 14.6255,4.87516 5.95855,11.37539 3.25012,13.00046 5.41683,20.04234 1.0834,9.20866 5.41683,2.70843 5.41687,-0.54171 1.62504,-9.20863 0,-13.54214 -1.08336,-17.33394 -1.62507,-14.6255 -2.7084,-11.91707 -19.05195,2.15079 -12.90749,-12.98449 -13.00046,-13.54211 -16.25054,-16.79226 -15.16719,-16.25054 -17.33393,-8.66698 -16.79226,-1.08337 -13.00043,-11.37538 -4.33347,-11.9171 -4.87519,-22.75077 -7.58359,-21.12573 -5.95852,-8.66696 -5.95855,-4.87516 0.54168,-20.58405 -2.70843,-16.25054 -4.87516,-14.08382 -9.75034,-11.37539 -10.292,-12.27631 -5.41687,-27.8084 1.62507,-28.70932 0,-14.6255 1.08337,-14.6255 0.54168,-8.66697 11.91706,-1.08337 10.29203,4.33348 8.66695,6.50023 8.1253,8.12528 10.83371,15.16718 5.95852,13.00045 5.41687,13.00044 9.20863,8.12528 23.83417,3.7918 6.50023,-16.25056 -11.9171,-11.37539 -14.6255,-1.08337 -8.12528,-10.8337 -5.41683,-13.54213 -2.84195,-13.16911 -6.12845,-13.023 -9.19272,-10.72482 -13.78904,-8.809673 -16.47027,-6.894528 -16.08723,-4.213323 -13.34032,-0.405579 -12.44281,-4.716511 1.26924,-8.666965 -0.38301,-7.277557 4.97936,-10.724819 2.29818,-10.341792 -0.76605,-16.470261 -6.89453,-12.6399673 -11.10784,-7.2775572 -13.78907,-0.7660586 -12.63997,1.5321173 -9.95875,4.2133226 -4.59634,5.3624102 0.38301,3.830294 -1.91515,5.36241 -2.29816,6.128469 -0.38304,4.213323 0,3.064235 -1.5321,5.745439 -2.68123,3.830294 -1.91515,3.064234 2.68123,1.149088 2.6812,2.681206 -0.76605,5.362407 -0.38304,3.830293 2.29818,1.532118 1.46641,2.298176 -0.44875,4.979381 -3.69889,7.660586 0.76609,2.298176 5.3624,0 6.12848,0 4.97935,0 3.06424,3.064235 0,5.74544 0,7.660586 -0.79669,9.575731 -7.62994,19.91753 -9.1927,5.36241 -8.04362,5.36241 -5.74544,2.29817 -11.87392,-11.10785 -6.5115,-9.95876 -5.74544,-8.42664 -1.91514,-7.66059 -0.76606,-12.639968 -3.44725,-10.724821 -4.97939,-7.660586 -8.42664,-6.894528 -9.192711,-0.38303 -7.660587,1.532118 -3.830293,6.894528 0,10.341791 1.149088,6.894528 3.447264,6.511499 5.36241,14.555119 7.277552,5.36241 7.277577,6.51149 5.3624,12.25694 5.74544,16.85329 13.40602,22.2157 8.04363,10.34179 12.63994,5.36241 11.10787,2.29818 7.66059,-2.68121 4.59635,-4.21332 -3.06425,33.70658 0.76606,13.023 0,7.66058 -4.59635,-1.14909 z"
       id="path3021"
       sodipodi:nodetypes="cccccccccccccccccccccccccccccccccccccccccccccccccccccccccccccccccccccccccccccccccccccccccccccccccccccccccccccccccccccccccccccccccccccccccccccccccccccccccccccccccccccccccccccccccccccccccc" />
    <path
       inkscape:connector-curvature="0"
       style="fill:#666666;fill-rule:evenodd;stroke:#000000;stroke-width:2.88804102px;stroke-linecap:butt;stroke-linejoin:miter;stroke-opacity:1"
       d="m 173.69672,183.76597 38.30293,-39.83505 7.66059,-19.91752 0,-24.513877 -21.44963,-9.192703 -18.38541,15.32117 -13.78907,19.91753 0,0"
       id="path3023"
       sodipodi:nodetypes="cccccccc" />
    <path
       inkscape:connector-curvature="0"
       style="fill:#666666;fill-rule:evenodd;stroke:#000000;stroke-width:2.88804102px;stroke-linecap:butt;stroke-linejoin:miter;stroke-opacity:1"
       d="m 170.63248,237.39007 3.06424,30.64236 3.06424,16.85328 6.12845,10.72482 16.85331,13.78907 0,0"
       id="path3025" />
    <path
       inkscape:connector-curvature="0"
       style="fill:#666666;fill-rule:evenodd;stroke:#000000;stroke-width:2.88804102px;stroke-linecap:butt;stroke-linejoin:miter;stroke-opacity:1"
       d="m 164.50403,128.60975 24.51386,39.83505 -16.85328,13.78905 -1.53213,56.68834 -41.36715,-1.53212 3.06422,76.60588 47.49565,-3.06424 15.32117,-6.12849 18.38539,26.046 26.046,27.57811 54.39015,-23.74781 -9.19269,-31.4084 -12.25693,-14.55512 -0.76605,-26.81205 -6.89454,-22.98176 -12.25693,-17.61935 -8.42667,-10.72482 -4.59634,-25.27993 0.76605,-22.98176 1.53213,-33.70658 0,-9.95876 14.55512,0 8.42664,3.83029 11.49088,-29.110226 -21.44965,-7.660586 -15.32117,-3.830294 -16.14167,-0.02255 -8.3722,-5.416853 -7.66059,0.84305 -12.25693,4.596352 -16.08725,4.596352 -3.8303,0 -0.76605,23.747815 -9.95874,18.38541 z"
       id="path3027"
       sodipodi:nodetypes="cccccccccccccccccccccccccccccccccc" />
    <path
       inkscape:connector-curvature="0"
       style="fill:#666666;fill-rule:evenodd;stroke:#000000;stroke-width:0.57760823;stroke-linecap:butt;stroke-linejoin:miter;stroke-miterlimit:4;stroke-opacity:1;stroke-dasharray:none"
       d="m 189.01789,166.91268 23.3648,-17.23632 9.57573,-12.63997 4.97936,-18.76843 -5.74544,-16.47026 -11.49088,-4.979382 -14.17205,3.447262 -13.40605,9.19271 -11.49088,10.72482 -4.59635,6.12847"
       id="path3029"
       sodipodi:nodetypes="cccccccccc" />
  </g>
  <g
     style="fill:#4d4d4d"
     id="g3007"
     transform="matrix(-1,0,0,1,702.66384,0)">
    <path
       sodipodi:nodetypes="cccccccccccccccccccccccccccccccccccccccccccccccccccccccccccccccccccccccccccccccccccccccccccccccccccccccccccccccccccccccccccccccccccccccccccccccccccccccccccccccccccccccccccccccccccccccccc"
       id="path3009"
       d="m 166.03613,237.39007 -38.92115,2.55398 -18.95897,9.20865 -10.292029,8.12527 -14.083806,11.37539 -11.917074,10.8337 -8.125281,4.33348 -5.41685,4.3335 -1.08337,10.292 -0.541687,14.08382 1.625057,7.58359 2.166739,25.81845 7.04191,34.30863 5.958537,27.62593 2.166741,23.29249 -1.083371,8.12527 -13.000447,3.79179 -8.125278,4.87516 -7.583594,5.41687 -9.750333,4.33348 -11.917076,0 -9.750333,0.54168 -11.3753926,1.62507 -1.6250545,5.41684 2.7084251,3.79179 14.625505,2.70844 -8.666968,-1.08339 16.792246,-0.54169 11.375387,0.54171 15.708872,-0.54168 19.500671,0.54166 23.834144,1.08339 9.20866,-2.16676 3.25012,-8.66695 -3.7918,-9.20866 -10.369018,-7.86241 1.702038,-11.09657 -3.791789,-12.45875 0,-11.37539 0,-12.45877 0,-10.29203 4.87518,-23.83414 4.333479,-21.12573 -0.54168,-11.37538 0,-10.83371 0,-3.7918 17.87558,-2.70843 24.91753,-1.08336 19.50069,0 12.45875,0 23.29245,-5.41684 11.9171,22.20909 10.292,10.83371 13.00046,14.6255 12.45874,10.83371 23.83417,22.75077 8.66695,12.45875 11.37539,0 15.16721,3.7918 32.50109,13.00045 47.6683,26.00089 14.6255,4.87516 5.95855,11.37539 3.25012,13.00046 5.41683,20.04234 1.0834,9.20866 5.41683,2.70843 5.41687,-0.54171 1.62504,-9.20863 0,-13.54214 -1.08336,-17.33394 -1.62507,-14.6255 -2.7084,-11.91707 -19.05195,2.15079 -12.90749,-12.98449 -13.00046,-13.54211 -16.25054,-16.79226 -15.16719,-16.25054 -17.33393,-8.66698 -16.79226,-1.08337 -13.00043,-11.37538 -4.33347,-11.9171 -4.87519,-22.75077 -7.58359,-21.12573 -5.95852,-8.66696 -5.95855,-4.87516 0.54168,-20.58405 -2.70843,-16.25054 -4.87516,-14.08382 -9.75034,-11.37539 -10.292,-12.27631 -5.41687,-27.8084 1.62507,-28.70932 0,-14.6255 1.08337,-14.6255 0.54168,-8.66697 11.91706,-1.08337 10.29203,4.33348 8.66695,6.50023 8.1253,8.12528 10.83371,15.16718 5.95852,13.00045 5.41687,13.00044 9.20863,8.12528 23.83417,3.7918 6.50023,-16.25056 -11.9171,-11.37539 -14.6255,-1.08337 -8.12528,-10.8337 -5.41683,-13.54213 -2.84195,-13.16911 -6.12845,-13.023 -9.19272,-10.72482 -13.78904,-8.809673 -16.47027,-6.894528 -16.08723,-4.213323 -13.34032,-0.405579 -12.44281,-4.716511 1.26924,-8.666965 -0.38301,-7.277557 4.97936,-10.724819 2.29818,-10.341792 -0.76605,-16.470261 -6.89453,-12.6399673 -11.10784,-7.2775572 -13.78907,-0.7660586 -12.63997,1.5321173 -9.95875,4.2133226 -4.59634,5.3624102 0.38301,3.830294 -1.91515,5.36241 -2.29816,6.128469 -0.38304,4.213323 0,3.064235 -1.5321,5.745439 -2.68123,3.830294 -1.91515,3.064234 2.68123,1.149088 2.6812,2.681206 -0.76605,5.362407 -0.38304,3.830293 2.29818,1.532118 1.46641,2.298176 -0.44875,4.979381 -3.69889,7.660586 0.76609,2.298176 5.3624,0 6.12848,0 4.97935,0 3.06424,3.064235 0,5.74544 0,7.660586 -0.79669,9.575731 -7.62994,19.91753 -9.1927,5.36241 -8.04362,5.36241 -5.74544,2.29817 -11.87392,-11.10785 -6.5115,-9.95876 -5.74544,-8.42664 -1.91514,-7.66059 -0.76606,-12.639968 -3.44725,-10.724821 -4.97939,-7.660586 -8.42664,-6.894528 -9.192711,-0.38303 -7.660587,1.532118 -3.830293,6.894528 0,10.341791 1.149088,6.894528 3.447264,6.511499 5.36241,14.555119 7.277552,5.36241 7.277577,6.51149 5.3624,12.25694 5.74544,16.85329 13.40602,22.2157 8.04363,10.34179 12.63994,5.36241 11.10787,2.29818 7.66059,-2.68121 4.59635,-4.21332 -3.06425,33.70658 0.76606,13.023 0,7.66058 -4.59635,-1.14909 z"
       style="fill:#4d4d4d;fill-rule:evenodd;stroke:#000000;stroke-width:2.88804102px;stroke-linecap:butt;stroke-linejoin:miter;stroke-opacity:1"
       inkscape:connector-curvature="0" />
    <path
       sodipodi:nodetypes="cccccccc"
       id="path3011"
       d="m 173.69672,183.76597 38.30293,-39.83505 7.66059,-19.91752 0,-24.513877 -21.44963,-9.192703 -18.38541,15.32117 -13.78907,19.91753 0,0"
       style="fill:#4d4d4d;fill-rule:evenodd;stroke:#000000;stroke-width:2.88804102px;stroke-linecap:butt;stroke-linejoin:miter;stroke-opacity:1"
       inkscape:connector-curvature="0" />
    <path
       id="path3013"
       d="m 170.63248,237.39007 3.06424,30.64236 3.06424,16.85328 6.12845,10.72482 16.85331,13.78907 0,0"
       style="fill:#4d4d4d;fill-rule:evenodd;stroke:#000000;stroke-width:2.88804102px;stroke-linecap:butt;stroke-linejoin:miter;stroke-opacity:1"
       inkscape:connector-curvature="0" />
    <path
       sodipodi:nodetypes="cccccccccccccccccccccccccccccccccc"
       id="path3015"
       d="m 164.50403,128.60975 24.51386,39.83505 -16.85328,13.78905 -1.53213,56.68834 -41.36715,-1.53212 3.06422,76.60588 47.49565,-3.06424 15.32117,-6.12849 18.38539,26.046 26.046,27.57811 54.39015,-23.74781 -9.19269,-31.4084 -12.25693,-14.55512 -0.76605,-26.81205 -6.89454,-22.98176 -12.25693,-17.61935 -8.42667,-10.72482 -4.59634,-25.27993 0.76605,-22.98176 1.53213,-33.70658 0,-9.95876 14.55512,0 8.42664,3.83029 11.49088,-29.110226 -21.44965,-7.660586 -15.32117,-3.830294 -16.14167,-0.02255 -8.3722,-5.416853 -7.66059,0.84305 -12.25693,4.596352 -16.08725,4.596352 -3.8303,0 -0.76605,23.747815 -9.95874,18.38541 z"
       style="fill:#4d4d4d;fill-rule:evenodd;stroke:#000000;stroke-width:2.88804102px;stroke-linecap:butt;stroke-linejoin:miter;stroke-opacity:1"
       inkscape:connector-curvature="0" />
    <path
       sodipodi:nodetypes="cccccccccc"
       id="path3017"
       d="m 189.01789,166.91268 23.3648,-17.23632 9.57573,-12.63997 4.97936,-18.76843 -5.74544,-16.47026 -11.49088,-4.979382 -14.17205,3.447262 -13.40605,9.19271 -11.49088,10.72482 -4.59635,6.12847"
       style="fill:#4d4d4d;fill-rule:evenodd;stroke:#000000;stroke-width:0.57760823;stroke-linecap:butt;stroke-linejoin:miter;stroke-miterlimit:4;stroke-opacity:1;stroke-dasharray:none"
       inkscape:connector-curvature="0" />
  </g>
  <g
     transform="matrix(-1,0,0,1,834.32788,0)"
     id="g2995"
     style="fill:#333333">
    <path
       inkscape:connector-curvature="0"
       style="fill:#333333;fill-rule:evenodd;stroke:#000000;stroke-width:2.88804102px;stroke-linecap:butt;stroke-linejoin:miter;stroke-opacity:1"
       d="m 166.03613,237.39007 -38.92115,2.55398 -18.95897,9.20865 -10.292029,8.12527 -14.083806,11.37539 -11.917074,10.8337 -8.125281,4.33348 -5.41685,4.3335 -1.08337,10.292 -0.541687,14.08382 1.625057,7.58359 2.166739,25.81845 7.04191,34.30863 5.958537,27.62593 2.166741,23.29249 -1.083371,8.12527 -13.000447,3.79179 -8.125278,4.87516 -7.583594,5.41687 -9.750333,4.33348 -11.917076,0 -9.750333,0.54168 -11.3753926,1.62507 -1.6250545,5.41684 2.7084251,3.79179 14.625505,2.70844 -8.666968,-1.08339 16.792246,-0.54169 11.375387,0.54171 15.708872,-0.54168 19.500671,0.54166 23.834144,1.08339 9.20866,-2.16676 3.25012,-8.66695 -3.7918,-9.20866 -10.369018,-7.86241 1.702038,-11.09657 -3.791789,-12.45875 0,-11.37539 0,-12.45877 0,-10.29203 4.87518,-23.83414 4.333479,-21.12573 -0.54168,-11.37538 0,-10.83371 0,-3.7918 17.87558,-2.70843 24.91753,-1.08336 19.50069,0 12.45875,0 23.29245,-5.41684 11.9171,22.20909 10.292,10.83371 13.00046,14.6255 12.45874,10.83371 23.83417,22.75077 8.66695,12.45875 11.37539,0 15.16721,3.7918 32.50109,13.00045 47.6683,26.00089 14.6255,4.87516 5.95855,11.37539 3.25012,13.00046 5.41683,20.04234 1.0834,9.20866 5.41683,2.70843 5.41687,-0.54171 1.62504,-9.20863 0,-13.54214 -1.08336,-17.33394 -1.62507,-14.6255 -2.7084,-11.91707 -19.05195,2.15079 -12.90749,-12.98449 -13.00046,-13.54211 -16.25054,-16.79226 -15.16719,-16.25054 -17.33393,-8.66698 -16.79226,-1.08337 -13.00043,-11.37538 -4.33347,-11.9171 -4.87519,-22.75077 -7.58359,-21.12573 -5.95852,-8.66696 -5.95855,-4.87516 0.54168,-20.58405 -2.70843,-16.25054 -4.87516,-14.08382 -9.75034,-11.37539 -10.292,-12.27631 -5.41687,-27.8084 1.62507,-28.70932 0,-14.6255 1.08337,-14.6255 0.54168,-8.66697 11.91706,-1.08337 10.29203,4.33348 8.66695,6.50023 8.1253,8.12528 10.83371,15.16718 5.95852,13.00045 5.41687,13.00044 9.20863,8.12528 23.83417,3.7918 6.50023,-16.25056 -11.9171,-11.37539 -14.6255,-1.08337 -8.12528,-10.8337 -5.41683,-13.54213 -2.84195,-13.16911 -6.12845,-13.023 -9.19272,-10.72482 -13.78904,-8.809673 -16.47027,-6.894528 -16.08723,-4.213323 -13.34032,-0.405579 -12.44281,-4.716511 1.26924,-8.666965 -0.38301,-7.277557 4.97936,-10.724819 2.29818,-10.341792 -0.76605,-16.470261 -6.89453,-12.6399673 -11.10784,-7.2775572 -13.78907,-0.7660586 -12.63997,1.5321173 -9.95875,4.2133226 -4.59634,5.3624102 0.38301,3.830294 -1.91515,5.36241 -2.29816,6.128469 -0.38304,4.213323 0,3.064235 -1.5321,5.745439 -2.68123,3.830294 -1.91515,3.064234 2.68123,1.149088 2.6812,2.681206 -0.76605,5.362407 -0.38304,3.830293 2.29818,1.532118 1.46641,2.298176 -0.44875,4.979381 -3.69889,7.660586 0.76609,2.298176 5.3624,0 6.12848,0 4.97935,0 3.06424,3.064235 0,5.74544 0,7.660586 -0.79669,9.575731 -7.62994,19.91753 -9.1927,5.36241 -8.04362,5.36241 -5.74544,2.29817 -11.87392,-11.10785 -6.5115,-9.95876 -5.74544,-8.42664 -1.91514,-7.66059 -0.76606,-12.639968 -3.44725,-10.724821 -4.97939,-7.660586 -8.42664,-6.894528 -9.192711,-0.38303 -7.660587,1.532118 -3.830293,6.894528 0,10.341791 1.149088,6.894528 3.447264,6.511499 5.36241,14.555119 7.277552,5.36241 7.277577,6.51149 5.3624,12.25694 5.74544,16.85329 13.40602,22.2157 8.04363,10.34179 12.63994,5.36241 11.10787,2.29818 7.66059,-2.68121 4.59635,-4.21332 -3.06425,33.70658 0.76606,13.023 0,7.66058 -4.59635,-1.14909 z"
       id="path2997"
       sodipodi:nodetypes="cccccccccccccccccccccccccccccccccccccccccccccccccccccccccccccccccccccccccccccccccccccccccccccccccccccccccccccccccccccccccccccccccccccccccccccccccccccccccccccccccccccccccccccccccccccccccc" />
    <path
       inkscape:connector-curvature="0"
       style="fill:#333333;fill-rule:evenodd;stroke:#000000;stroke-width:2.88804102px;stroke-linecap:butt;stroke-linejoin:miter;stroke-opacity:1"
       d="m 173.69672,183.76597 38.30293,-39.83505 7.66059,-19.91752 0,-24.513877 -21.44963,-9.192703 -18.38541,15.32117 -13.78907,19.91753 0,0"
       id="path2999"
       sodipodi:nodetypes="cccccccc" />
    <path
       inkscape:connector-curvature="0"
       style="fill:#333333;fill-rule:evenodd;stroke:#000000;stroke-width:2.88804102px;stroke-linecap:butt;stroke-linejoin:miter;stroke-opacity:1"
       d="m 170.63248,237.39007 3.06424,30.64236 3.06424,16.85328 6.12845,10.72482 16.85331,13.78907 0,0"
       id="path3001" />
    <path
       inkscape:connector-curvature="0"
       style="fill:#333333;fill-rule:evenodd;stroke:#000000;stroke-width:2.88804102px;stroke-linecap:butt;stroke-linejoin:miter;stroke-opacity:1"
       d="m 164.50403,128.60975 24.51386,39.83505 -16.85328,13.78905 -1.53213,56.68834 -41.36715,-1.53212 3.06422,76.60588 47.49565,-3.06424 15.32117,-6.12849 18.38539,26.046 26.046,27.57811 54.39015,-23.74781 -9.19269,-31.4084 -12.25693,-14.55512 -0.76605,-26.81205 -6.89454,-22.98176 -12.25693,-17.61935 -8.42667,-10.72482 -4.59634,-25.27993 0.76605,-22.98176 1.53213,-33.70658 0,-9.95876 14.55512,0 8.42664,3.83029 11.49088,-29.110226 -21.44965,-7.660586 -15.32117,-3.830294 -16.14167,-0.02255 -8.3722,-5.416853 -7.66059,0.84305 -12.25693,4.596352 -16.08725,4.596352 -3.8303,0 -0.76605,23.747815 -9.95874,18.38541 z"
       id="path3003"
       sodipodi:nodetypes="cccccccccccccccccccccccccccccccccc" />
    <path
       inkscape:connector-curvature="0"
       style="fill:#333333;fill-rule:evenodd;stroke:#000000;stroke-width:0.57760823;stroke-linecap:butt;stroke-linejoin:miter;stroke-miterlimit:4;stroke-opacity:1;stroke-dasharray:none"
       d="m 189.01789,166.91268 23.3648,-17.23632 9.57573,-12.63997 4.97936,-18.76843 -5.74544,-16.47026 -11.49088,-4.979382 -14.17205,3.447262 -13.40605,9.19271 -11.49088,10.72482 -4.59635,6.12847"
       id="path3005"
       sodipodi:nodetypes="cccccccccc" />
  </g>
  <g
     id="g2988"
     transform="matrix(-1,0,0,1,1039.1014,0)">
    <path
       sodipodi:nodetypes="cccccccccccccccccccccccccccccccccccccccccccccccccccccccccccccccccccccccccccccccccccccccccccccccccccccccccccccccccccccccccccccccccccccccccccccccccccccccccccccccccccccccccccccccccccccccccc"
       id="path1928"
       d="m 166.03613,237.39007 -38.92115,2.55398 -18.95897,9.20865 -10.292029,8.12527 -14.083806,11.37539 -11.917074,10.8337 -8.125281,4.33348 -5.41685,4.3335 -1.08337,10.292 -0.541687,14.08382 1.625057,7.58359 2.166739,25.81845 7.04191,34.30863 5.958537,27.62593 2.166741,23.29249 -1.083371,8.12527 -13.000447,3.79179 -8.125278,4.87516 -7.583594,5.41687 -9.750333,4.33348 -11.917076,0 -9.750333,0.54168 -11.3753926,1.62507 -1.6250545,5.41684 2.7084251,3.79179 14.625505,2.70844 -8.666968,-1.08339 16.792246,-0.54169 11.375387,0.54171 15.708872,-0.54168 19.500671,0.54166 23.834144,1.08339 9.20866,-2.16676 3.25012,-8.66695 -3.7918,-9.20866 -10.369018,-7.86241 1.702038,-11.09657 -3.791789,-12.45875 0,-11.37539 0,-12.45877 0,-10.29203 4.87518,-23.83414 4.333479,-21.12573 -0.54168,-11.37538 0,-10.83371 0,-3.7918 17.87558,-2.70843 24.91753,-1.08336 19.50069,0 12.45875,0 23.29245,-5.41684 11.9171,22.20909 10.292,10.83371 13.00046,14.6255 12.45874,10.83371 23.83417,22.75077 8.66695,12.45875 11.37539,0 15.16721,3.7918 32.50109,13.00045 47.6683,26.00089 14.6255,4.87516 5.95855,11.37539 3.25012,13.00046 5.41683,20.04234 1.0834,9.20866 5.41683,2.70843 5.41687,-0.54171 1.62504,-9.20863 0,-13.54214 -1.08336,-17.33394 -1.62507,-14.6255 -2.7084,-11.91707 -19.05195,2.15079 -12.90749,-12.98449 -13.00046,-13.54211 -16.25054,-16.79226 -15.16719,-16.25054 -17.33393,-8.66698 -16.79226,-1.08337 -13.00043,-11.37538 -4.33347,-11.9171 -4.87519,-22.75077 -7.58359,-21.12573 -5.95852,-8.66696 -5.95855,-4.87516 0.54168,-20.58405 -2.70843,-16.25054 -4.87516,-14.08382 -9.75034,-11.37539 -10.292,-12.27631 -5.41687,-27.8084 1.62507,-28.70932 0,-14.6255 1.08337,-14.6255 0.54168,-8.66697 11.91706,-1.08337 10.29203,4.33348 8.66695,6.50023 8.1253,8.12528 10.83371,15.16718 5.95852,13.00045 5.41687,13.00044 9.20863,8.12528 23.83417,3.7918 6.50023,-16.25056 -11.9171,-11.37539 -14.6255,-1.08337 -8.12528,-10.8337 -5.41683,-13.54213 -2.84195,-13.16911 -6.12845,-13.023 -9.19272,-10.72482 -13.78904,-8.809673 -16.47027,-6.894528 -16.08723,-4.213323 -13.34032,-0.405579 -12.44281,-4.716511 1.26924,-8.666965 -0.38301,-7.277557 4.97936,-10.724819 2.29818,-10.341792 -0.76605,-16.470261 -6.89453,-12.6399673 -11.10784,-7.2775572 -13.78907,-0.7660586 -12.63997,1.5321173 -9.95875,4.2133226 -4.59634,5.3624102 0.38301,3.830294 -1.91515,5.36241 -2.29816,6.128469 -0.38304,4.213323 0,3.064235 -1.5321,5.745439 -2.68123,3.830294 -1.91515,3.064234 2.68123,1.149088 2.6812,2.681206 -0.76605,5.362407 -0.38304,3.830293 2.29818,1.532118 1.46641,2.298176 -0.44875,4.979381 -3.69889,7.660586 0.76609,2.298176 5.3624,0 6.12848,0 4.97935,0 3.06424,3.064235 0,5.74544 0,7.660586 -0.79669,9.575731 -7.62994,19.91753 -9.1927,5.36241 -8.04362,5.36241 -5.74544,2.29817 -11.87392,-11.10785 -6.5115,-9.95876 -5.74544,-8.42664 -1.91514,-7.66059 -0.76606,-12.639968 -3.44725,-10.724821 -4.97939,-7.660586 -8.42664,-6.894528 -9.192711,-0.38303 -7.660587,1.532118 -3.830293,6.894528 0,10.341791 1.149088,6.894528 3.447264,6.511499 5.36241,14.555119 7.277552,5.36241 7.277577,6.51149 5.3624,12.25694 5.74544,16.85329 13.40602,22.2157 8.04363,10.34179 12.63994,5.36241 11.10787,2.29818 7.66059,-2.68121 4.59635,-4.21332 -3.06425,33.70658 0.76606,13.023 0,7.66058 -4.59635,-1.14909 z"
       style="fill:#000000;fill-rule:evenodd;stroke:#000000;stroke-width:2.88804102px;stroke-linecap:butt;stroke-linejoin:miter;stroke-opacity:1"
       inkscape:connector-curvature="0" />
    <path
       sodipodi:nodetypes="cccccccc"
       id="path1932"
       d="m 173.69672,183.76597 38.30293,-39.83505 7.66059,-19.91752 0,-24.513877 -21.44963,-9.192703 -18.38541,15.32117 -13.78907,19.91753 0,0"
       style="fill:#000000;fill-rule:evenodd;stroke:#000000;stroke-width:2.88804102px;stroke-linecap:butt;stroke-linejoin:miter;stroke-opacity:1"
       inkscape:connector-curvature="0" />
    <path
       id="path1934"
       d="m 170.63248,237.39007 3.06424,30.64236 3.06424,16.85328 6.12845,10.72482 16.85331,13.78907 0,0"
       style="fill:#000000;fill-rule:evenodd;stroke:#000000;stroke-width:2.88804102px;stroke-linecap:butt;stroke-linejoin:miter;stroke-opacity:1"
       inkscape:connector-curvature="0" />
    <path
       sodipodi:nodetypes="cccccccccccccccccccccccccccccccccc"
       id="path1936"
       d="m 164.50403,128.60975 24.51386,39.83505 -16.85328,13.78905 -1.53213,56.68834 -41.36715,-1.53212 3.06422,76.60588 47.49565,-3.06424 15.32117,-6.12849 18.38539,26.046 26.046,27.57811 54.39015,-23.74781 -9.19269,-31.4084 -12.25693,-14.55512 -0.76605,-26.81205 -6.89454,-22.98176 -12.25693,-17.61935 -8.42667,-10.72482 -4.59634,-25.27993 0.76605,-22.98176 1.53213,-33.70658 0,-9.95876 14.55512,0 8.42664,3.83029 11.49088,-29.110226 -21.44965,-7.660586 -15.32117,-3.830294 -16.14167,-0.02255 -8.3722,-5.416853 -7.66059,0.84305 -12.25693,4.596352 -16.08725,4.596352 -3.8303,0 -0.76605,23.747815 -9.95874,18.38541 z"
       style="fill:#000000;fill-rule:evenodd;stroke:#000000;stroke-width:2.88804102px;stroke-linecap:butt;stroke-linejoin:miter;stroke-opacity:1"
       inkscape:connector-curvature="0" />
    <path
       sodipodi:nodetypes="cccccccccc"
       id="path1944"
       d="m 189.01789,166.91268 23.3648,-17.23632 9.57573,-12.63997 4.97936,-18.76843 -5.74544,-16.47026 -11.49088,-4.979382 -14.17205,3.447262 -13.40605,9.19271 -11.49088,10.72482 -4.59635,6.12847"
       style="fill:#000000;fill-rule:evenodd;stroke:#000000;stroke-width:0.57760823;stroke-linecap:butt;stroke-linejoin:miter;stroke-miterlimit:4;stroke-opacity:1;stroke-dasharray:none"
       inkscape:connector-curvature="0" />
  </g>
</svg>
