<?xml version="1.0" encoding="UTF-8" standalone="no"?>
<!-- Created with Inkscape (http://www.inkscape.org/) -->

<svg
   xmlns:dc="http://purl.org/dc/elements/1.1/"
   xmlns:cc="http://creativecommons.org/ns#"
   xmlns:rdf="http://www.w3.org/1999/02/22-rdf-syntax-ns#"
   xmlns:svg="http://www.w3.org/2000/svg"
   xmlns="http://www.w3.org/2000/svg"
   xmlns:sodipodi="http://sodipodi.sourceforge.net/DTD/sodipodi-0.dtd"
   xmlns:inkscape="http://www.inkscape.org/namespaces/inkscape"
   id="svg4888"
   sodipodi:docname="double-arrow-down.svg"
   viewBox="0 0 291.34 291.34"
   version="1.1"
   inkscape:version="0.91 r13725"
   width="291.34"
   height="291.34">
  <defs
     id="defs4890">
    <filter
       id="filter6126"
       inkscape:collect="always"
       style="color-interpolation-filters:sRGB">
      <feGaussianBlur
         id="feGaussianBlur6128"
         stdDeviation="0.53035713"
         inkscape:collect="always" />
    </filter>
    <linearGradient
       id="linearGradient3654"
       y2="391.45001"
       gradientUnits="userSpaceOnUse"
       y1="300.85999"
       x2="342"
       x1="275.60999"
       inkscape:collect="always">
      <stop
         id="stop7258-3"
         style="stop-color:#112b00"
         offset="0" />
      <stop
         id="stop7260-7"
         style="stop-color:#66ff00"
         offset="1" />
    </linearGradient>
    <radialGradient
       id="radialGradient3656"
       gradientUnits="userSpaceOnUse"
       cx="312.78"
       cy="386.57001"
       r="53.035999"
       gradientTransform="matrix(-0.59327,-0.59327,0.71505,-0.71505,243.27,849.03)"
       inkscape:collect="always">
      <stop
         id="stop7113-8"
         style="stop-color:#ffffff;stop-opacity:.40816"
         offset="0" />
      <stop
         id="stop7115-29"
         style="stop-color:#ffffff;stop-opacity:0"
         offset="1" />
    </radialGradient>
    <linearGradient
       id="linearGradient3659"
       y2="338.82001"
       gradientUnits="userSpaceOnUse"
       y1="286.67001"
       gradientTransform="matrix(0.28738,0,0,0.28738,-571.76,-2.3895)"
       x2="300.26999"
       x1="255.32001"
       inkscape:collect="always">
      <stop
         id="stop4150"
         style="stop-color:#ffffff"
         offset="0" />
      <stop
         id="stop4152"
         style="stop-color:#ffffff;stop-opacity:0"
         offset="1" />
    </linearGradient>
    <filter
       id="filter5621"
       inkscape:collect="always"
       style="color-interpolation-filters:sRGB">
      <feGaussianBlur
         id="feGaussianBlur5623"
         stdDeviation="0.28167629"
         inkscape:collect="always" />
    </filter>
  </defs>
  <sodipodi:namedview
     id="base"
     bordercolor="#666666"
     inkscape:pageshadow="2"
     inkscape:window-y="-8"
     pagecolor="#ffffff"
     inkscape:window-height="705"
     inkscape:window-maximized="1"
     inkscape:zoom="1"
     inkscape:window-x="-8"
     showgrid="false"
     borderopacity="1.0"
     inkscape:current-layer="text11467"
     inkscape:cx="285.92008"
     inkscape:cy="234.61459"
     inkscape:window-width="1366"
     inkscape:pageopacity="0.0"
     inkscape:document-units="px"
     fit-margin-top="0"
     fit-margin-left="0"
     fit-margin-right="0"
     fit-margin-bottom="0" />
  <g
     id="layer1"
     inkscape:label="Layer 1"
     inkscape:groupmode="layer"
     transform="translate(-45.65239,-701.95127)">
    <g
       id="text11467"
       style="fill:#000000">
      <g
         id="g3398"
         transform="translate(-0.4728497,-3.9999996)">
        <g
           transform="matrix(0,1,-1,0,1054.1057,655.0811)"
           id="g7066">
          <g
             transform="matrix(8.7102,0,0,8.7102,4443.9,70.152)"
             id="g5779">
            <circle
               transform="matrix(0.29286,0,0,0.29286,-576.59,-10.416)"
               style="fill:#999999"
               id="path3636"
               cx="303.75"
               cy="346.11218"
               r="53.035713" />
            <circle
               transform="matrix(0.26278,0,0,0.26278,-567.45,-0.0052887)"
               style="fill:#ececec;filter:url(#filter6126)"
               id="path3640"
               cx="303.75"
               cy="346.11218"
               r="53.035713" />
            <circle
               transform="matrix(0.2522,0,0,0.2522,-564.24,3.6558)"
               style="fill:#999999;filter:url(#filter6126)"
               id="path3642"
               cx="303.75"
               cy="346.11218"
               r="53.035713" />
            <circle
               transform="matrix(0.24242,0,0,0.24242,-561.26,7.0411)"
               style="fill:url(#linearGradient3654)"
               id="path3644"
               cx="303.75"
               cy="346.11218"
               r="53.035713" />
            <circle
               transform="matrix(0.22809,0,0,0.22809,-556.53,12.606)"
               style="fill:url(#radialGradient3656)"
               id="path3646"
               cx="303.75"
               cy="346.11218"
               r="53.035713" />
            <path
               d="m -487.93,78.858 c -4.01,0.09045 -7.8772,2.2134 -10.028,5.9386 -2.3134,4.0068 -2.0197,8.8037 0.34728,12.433 0.25661,-7.9811 6.3568,-13.992 13.935,-13.553 2.4844,0.14411 4.8294,0.96263 6.8763,2.2834 -0.97997,-2.241 -2.6523,-4.1973 -4.9315,-5.5132 -1.9513,-1.1266 -4.0986,-1.6362 -6.1991,-1.5888 z"
               inkscape:connector-curvature="0"
               style="opacity:0.31771001;fill:url(#linearGradient3659)"
               id="path3648" />
            <g
               transform="translate(50,0)"
               id="g5629">
              <path
                 d="m -535.81,84.668 c -0.46509,0 -0.93458,0.15397 -1.291,0.45756 l -0.0848,0.07224 c -0.71274,0.60718 -0.71273,1.5843 0,2.1915 l 4.4854,3.829 -4.4854,3.821 c -0.71274,0.60718 -0.71274,1.5843 0,2.1915 l 0.0848,0.08028 c 0.71275,0.60716 1.8598,0.60716 2.5725,0 l 5.7104,-4.8646 c 0.39352,-0.33523 0.5687,-0.78377 0.52768,-1.2202 3.1e-4,-0.0027 -2.9e-4,-0.0053 0,-0.008 -5.5e-4,-0.0055 6.3e-4,-0.01059 0,-0.01605 0.041,-0.43638 -0.13416,-0.88492 -0.52768,-1.2202 l -5.7104,-4.8565 c -0.35637,-0.30359 -0.81645,-0.45756 -1.2815,-0.45756 z"
                 inkscape:connector-curvature="0"
                 style="fill:#000000;filter:url(#filter5621)"
                 id="path5631" />
              <path
                 d="m -535.67,84.981 c -0.44289,0 -0.88998,0.14662 -1.2294,0.43572 l -0.0808,0.0688 c -0.67873,0.5782 -0.67872,1.5087 0,2.0869 l 4.2714,3.6463 -4.2714,3.6387 c -0.67873,0.57821 -0.67873,1.5087 0,2.0869 l 0.0808,0.07645 c 0.67874,0.57819 1.771,0.57819 2.4497,0 l 5.4379,-4.6324 c 0.37474,-0.31923 0.54156,-0.74637 0.5025,-1.1619 3e-4,-0.0026 -2.7e-4,-0.005 0,-0.0076 -5.2e-4,-0.0052 6e-4,-0.01008 0,-0.01529 0.0391,-0.41556 -0.12776,-0.8427 -0.5025,-1.1619 l -5.4379,-4.6248 c -0.33936,-0.2891 -0.77749,-0.43572 -1.2204,-0.43572 z"
                 inkscape:connector-curvature="0"
                 style="fill:#ffffff"
                 id="path5633" />
            </g>
            <g
               transform="translate(42,0)"
               id="g5635">
              <path
                 d="m -535.81,84.668 c -0.46509,0 -0.93458,0.15397 -1.291,0.45756 l -0.0848,0.07224 c -0.71274,0.60718 -0.71273,1.5843 0,2.1915 l 4.4854,3.829 -4.4854,3.821 c -0.71274,0.60718 -0.71274,1.5843 0,2.1915 l 0.0848,0.08028 c 0.71275,0.60716 1.8598,0.60716 2.5725,0 l 5.7104,-4.8646 c 0.39352,-0.33523 0.5687,-0.78377 0.52768,-1.2202 3.1e-4,-0.0027 -2.9e-4,-0.0053 0,-0.008 -5.5e-4,-0.0055 6.3e-4,-0.01059 0,-0.01605 0.041,-0.43638 -0.13416,-0.88492 -0.52768,-1.2202 l -5.7104,-4.8565 c -0.35637,-0.30359 -0.81645,-0.45756 -1.2815,-0.45756 z"
                 inkscape:connector-curvature="0"
                 style="fill:#000000;filter:url(#filter5621)"
                 id="path5637" />
              <path
                 d="m -535.67,84.981 c -0.44289,0 -0.88998,0.14662 -1.2294,0.43572 l -0.0808,0.0688 c -0.67873,0.5782 -0.67872,1.5087 0,2.0869 l 4.2714,3.6463 -4.2714,3.6387 c -0.67873,0.57821 -0.67873,1.5087 0,2.0869 l 0.0808,0.07645 c 0.67874,0.57819 1.771,0.57819 2.4497,0 l 5.4379,-4.6324 c 0.37474,-0.31923 0.54156,-0.74637 0.5025,-1.1619 3e-4,-0.0026 -2.7e-4,-0.005 0,-0.0076 -5.2e-4,-0.0052 6e-4,-0.01008 0,-0.01529 0.0391,-0.41556 -0.12776,-0.8427 -0.5025,-1.1619 l -5.4379,-4.6248 c -0.33936,-0.2891 -0.77749,-0.43572 -1.2204,-0.43572 z"
                 inkscape:connector-curvature="0"
                 style="fill:#ffffff"
                 id="path5639" />
            </g>
          </g>
        </g>
      </g>
    </g>
  </g>
  <metadata
     id="metadata38">
    <rdf:RDF>
      <cc:Work>
        <dc:format>image/svg+xml</dc:format>
        <dc:type
           rdf:resource="http://purl.org/dc/dcmitype/StillImage" />
        <cc:license
           rdf:resource="http://creativecommons.org/publicdomain/zero/1.0/" />
        <dc:publisher>
          <cc:Agent
             rdf:about="http://openclipart.org/">
            <dc:title>Openclipart</dc:title>
          </cc:Agent>
        </dc:publisher>
        <dc:title></dc:title>
        <dc:date>2011-02-24T17:45:45</dc:date>
        <dc:description />
        <dc:source>https://openclipart.org/detail/122419/double-arrow-button-by-ricardomaia</dc:source>
        <dc:creator>
          <cc:Agent>
            <dc:title>ricardomaia</dc:title>
          </cc:Agent>
        </dc:creator>
        <dc:subject>
          <rdf:Bag>
            <rdf:li>arrow</rdf:li>
            <rdf:li>button</rdf:li>
            <rdf:li>circle</rdf:li>
            <rdf:li>round</rdf:li>
          </rdf:Bag>
        </dc:subject>
      </cc:Work>
      <cc:License
         rdf:about="http://creativecommons.org/publicdomain/zero/1.0/">
        <cc:permits
           rdf:resource="http://creativecommons.org/ns#Reproduction" />
        <cc:permits
           rdf:resource="http://creativecommons.org/ns#Distribution" />
        <cc:permits
           rdf:resource="http://creativecommons.org/ns#DerivativeWorks" />
      </cc:License>
    </rdf:RDF>
  </metadata>
</svg>
