<?xml version="1.0" encoding="UTF-8" standalone="no"?>
<!-- Created with Inkscape (http://www.inkscape.org/) -->

<svg
   xmlns:dc="http://purl.org/dc/elements/1.1/"
   xmlns:cc="http://creativecommons.org/ns#"
   xmlns:rdf="http://www.w3.org/1999/02/22-rdf-syntax-ns#"
   xmlns:svg="http://www.w3.org/2000/svg"
   xmlns="http://www.w3.org/2000/svg"
   xmlns:sodipodi="http://sodipodi.sourceforge.net/DTD/sodipodi-0.dtd"
   xmlns:inkscape="http://www.inkscape.org/namespaces/inkscape"
   width="16"
   height="16"
   id="svg2164"
   sodipodi:version="0.32"
   inkscape:version="0.48.1 "
   sodipodi:docname="cell-phone.svg"
   inkscape:output_extension="org.inkscape.output.svg.inkscape"
   version="1.0">
  <defs
     id="defs2166" />
  <sodipodi:namedview
     id="base"
     pagecolor="#ffffff"
     bordercolor="#666666"
     borderopacity="1.0"
     gridtolerance="10000"
     guidetolerance="10"
     objecttolerance="10"
     inkscape:pageopacity="0.0"
     inkscape:pageshadow="2"
     inkscape:zoom="32.9375"
     inkscape:cx="8"
     inkscape:cy="8"
     inkscape:document-units="px"
     inkscape:current-layer="layer1"
     inkscape:window-width="1280"
     inkscape:window-height="744"
     inkscape:window-x="-4"
     inkscape:window-y="-4"
     showgrid="false"
     fit-margin-top="0"
     fit-margin-left="0"
     fit-margin-right="0"
     fit-margin-bottom="0"
     inkscape:window-maximized="1" />
  <metadata
     id="metadata2169">
    <rdf:RDF>
      <cc:Work
         rdf:about="">
        <dc:format>image/svg+xml</dc:format>
        <dc:type
           rdf:resource="http://purl.org/dc/dcmitype/StillImage" />
      </cc:Work>
    </rdf:RDF>
  </metadata>
  <g
     inkscape:label="Layer 1"
     inkscape:groupmode="layer"
     id="layer1"
     transform="translate(-120.1454,-886.20225)">
    <g
       id="g3875"
       transform="matrix(0.02508666,0,0,0.02508666,124.04688,885.68987)">
      <rect
         y="189.90839"
         x="52.681702"
         height="445.31091"
         width="278.74683"
         id="rect2172"
         style="fill:#000000" />
      <rect
         y="43.790752"
         x="51.42857"
         height="589.68909"
         width="38.847115"
         id="rect2174"
         style="fill:#000000" />
      <rect
         y="229.91679"
         x="76.491226"
         height="144.37814"
         width="238.09521"
         id="rect2176"
         style="fill:#00ffff" />
      <path
         inkscape:connector-curvature="0"
         d="m 111.86952,436.87815 c -2.80721,-0.59688 -5.64021,-0.76351 -8.46947,-1.00286 -2.29895,-1.12107 -4.705434,-1.27867 -7.087219,-1.71311 -2.460705,0.0789 -4.9045,-0.28436 -7.322986,-0.56012 -2.441017,-0.91392 -4.96389,-0.93852 -7.460307,-1.22815 l 25.468652,-25.3236 c 2.52886,0.41638 5.05223,0.84424 7.56491,1.4321 2.42985,0.0933 4.86899,0.0352 7.28486,0.48549 2.32245,0.58669 4.65479,1.24966 7.00324,1.5499 2.9487,0.38788 5.93231,0.58977 8.80692,1.66857 l -25.7886,24.69178 z"
         id="path2192"
         style="fill:#f9f9f9" />
      <path
         inkscape:connector-curvature="0"
         d="m 171.21701,410.22022 c 3.27374,0.24148 6.47808,-0.83832 9.6859,-1.55652 3.64787,-1.25842 7.37961,-1.45864 11.10341,-1.80235 4.22767,-0.14573 8.45661,-0.13359 12.68517,-0.14281 1.01916,0.002 2.03833,0.005 3.0575,0.009 l -25.34784,25.5561 c -1.01765,3e-5 -2.03529,-0.004 -3.05294,8e-5 -4.19493,0.0387 -8.39289,0.0152 -12.58316,0.33654 -3.64584,0.58018 -7.29247,1.10844 -10.88685,2.20634 -3.32788,0.54273 -6.64014,1.24243 -10.00633,0.95523 l 25.34514,-25.56125 z"
         id="path2194"
         style="fill:#f9f9f9" />
      <path
         inkscape:connector-curvature="0"
         d="m 240.13932,406.74122 c 5.36487,0 10.72973,0 16.0946,0 5.02441,0 10.0488,0 15.0732,0 l -25.34515,25.56125 c -5.02439,0 -10.04879,0 -15.0732,0 -5.36486,0 -10.72972,0 -16.09459,0 l 25.34514,-25.56125 z"
         id="path2196"
         style="fill:#f9f9f9" />
      <path
         inkscape:connector-curvature="0"
         d="m 102.43445,471.88314 c 2.35776,0.54654 4.69543,1.15356 7.02967,1.86769 3.42436,0.73642 6.88803,0.70962 10.34058,0.8211 4.01044,-0.49873 7.88101,0.66829 11.76689,1.6741 0.47235,0.1835 0.9447,0.36702 1.41705,0.55054 l -25.80103,24.66673 c -0.45454,-0.14772 -0.90908,-0.29544 -1.36361,-0.44316 -3.79215,-0.62483 -7.568094,-1.17978 -11.402348,-0.95955 -3.558062,-0.20695 -7.124666,-0.40125 -10.628039,-1.38199 -2.437738,-0.72071 -4.909127,-1.32647 -7.28357,-2.37921 l 25.924407,-24.41625 z"
         id="path2198"
         style="fill:#f9f9f9" />
      <path
         inkscape:connector-curvature="0"
         d="m 181.39197,474.58155 c 4.46633,0 8.93266,0 13.39899,0 3.02904,0 6.05807,0 9.0871,0 l -25.34514,25.56125 c -3.02904,0 -6.05807,0 -9.08711,0 -4.46632,0 -8.93265,0 -13.39898,0 l 25.34514,-25.56125 z"
         id="path2200"
         style="fill:#f9f9f9" />
      <path
         inkscape:connector-curvature="0"
         d="m 236.9795,471.10257 c 6.5049,-0.22653 12.98132,0.73641 19.47326,1.13488 4.75665,0.11377 9.50242,0.47398 14.2474,0.82249 l -25.47226,25.3166 c -4.7366,-0.25179 -9.47416,-0.48864 -14.21098,-0.75202 -6.45652,-0.48984 -12.91006,-1.19873 -19.38256,-0.9607 l 25.34514,-25.56125 z"
         id="path2202"
         style="fill:#f9f9f9" />
      <path
         inkscape:connector-curvature="0"
         d="m 246.17646,564.50415 c -3.36287,-1.25921 -6.86602,-1.30222 -10.3227,-1.51374 -4.12594,-0.21423 -8.25516,-0.22352 -12.38332,-0.24006 -2.35518,-0.003 -4.71037,0.003 -7.06554,0.006 l 25.34359,-25.5642 c 2.35816,8.7e-4 4.71634,-0.006 7.07448,0.0106 4.15743,0.0494 8.31646,0.0925 12.46911,0.40493 3.41921,0.35984 6.8254,0.95612 10.22953,1.33475 l -25.34515,25.56125 z"
         id="path2204"
         style="fill:#f9f9f9" />
      <path
         inkscape:connector-curvature="0"
         d="m 180.56386,564.50415 c -5.72244,0 -11.44488,0 -17.16733,0 -2.14485,0 -4.28971,0 -6.43456,0 l 25.34514,-25.56124 c 2.14486,0 4.28971,0 6.43457,0 5.72244,0 11.44489,0 17.16733,0 l -25.34515,25.56124 z"
         id="path2206"
         style="fill:#f9f9f9" />
      <path
         inkscape:connector-curvature="0"
         d="m 111.94135,566.24365 c -3.70659,-1.05811 -7.50916,-1.23295 -11.27767,-1.52367 -3.793521,-0.22352 -7.590949,-0.20512 -11.386883,-0.23044 -1.091277,-0.003 -2.182553,8.7e-4 -3.273829,0.002 l 25.345792,-25.56001 c 1.09362,0.003 2.18727,8.7e-4 3.28088,0.0118 3.82857,0.0653 7.65966,0.0754 11.48264,0.41455 3.72893,0.39074 7.4492,0.99896 11.17421,1.32482 l -25.34514,25.56125 z"
         id="path2208"
         style="fill:#f9f9f9" />
    </g>
  </g>
</svg>
