<?xml version="1.0" encoding="UTF-8" standalone="no"?>
<svg
   xmlns:dc="http://purl.org/dc/elements/1.1/"
   xmlns:cc="http://web.resource.org/cc/"
   xmlns:rdf="http://www.w3.org/1999/02/22-rdf-syntax-ns#"
   xmlns:svg="http://www.w3.org/2000/svg"
   xmlns="http://www.w3.org/2000/svg"
   xmlns:sodipodi="http://sodipodi.sourceforge.net/DTD/sodipodi-0.dtd"
   xmlns:inkscape="http://www.inkscape.org/namespaces/inkscape"
   width="300"
   height="300"
   id="svg2247"
   sodipodi:version="0.32"
   inkscape:version="0.45.1"
   inkscape:output_extension="org.inkscape.output.svg.inkscape"
   sodipodi:docbase="C:\Loadstar Projects\code\figures"
   sodipodi:docname="Loadstar Logo without text.svg"
   version="1.0">
  <metadata
     id="metadata2328">
    <rdf:RDF>
      <cc:Work
         rdf:about="">
        <dc:format>image/svg+xml</dc:format>
        <dc:type
           rdf:resource="http://purl.org/dc/dcmitype/StillImage" />
      </cc:Work>
    </rdf:RDF>
  </metadata>
  <defs
     id="defs2326" />
  <sodipodi:namedview
     inkscape:window-height="977"
     inkscape:window-width="1280"
     inkscape:pageshadow="2"
     inkscape:pageopacity="0.0"
     guidetolerance="10.0"
     gridtolerance="10.0"
     objecttolerance="10.0"
     borderopacity="1.0"
     bordercolor="#666666"
     pagecolor="#ffffff"
     id="base"
     inkscape:zoom="0.77660819"
     inkscape:cx="427.5"
     inkscape:cy="157.96063"
     inkscape:window-x="-4"
     inkscape:window-y="-4"
     inkscape:current-layer="layer2"
     showguides="true"
     inkscape:guide-bbox="true"
     height="300px"
     width="300px" />
  <g
     inkscape:groupmode="layer"
     id="layer1"
     inkscape:label="bottom" />
  <g
     inkscape:groupmode="layer"
     id="layer2"
     inkscape:label="top" />
  <path
     style="fill:#738db1;fill-opacity:1;fill-rule:nonzero;stroke:none"
     d="M 110.15468,130.24199 L 110.15468,50.907804 L 110.15468,50.907804 L 110.69891,48.298128 L 111.24314,46.210386 L 112.87583,43.600709 L 114.50852,42.034902 L 116.1412,40.469096 L 118.31812,39.425225 L 121.03927,38.381355 L 123.76042,38.381355 L 123.76042,38.381355 L 125.93733,38.381355 L 128.65848,39.425225 L 130.8354,40.469096 L 132.46808,42.034902 L 134.10077,43.600709 L 135.73346,46.210386 L 136.27769,48.298128 L 136.82192,50.907804 L 136.82192,145.37812 L 167.29876,145.37812 L 167.29876,50.907804 L 167.29876,50.907804 L 167.84299,48.298128 L 168.38722,46.210386 L 169.47568,43.600709 L 171.10837,42.034902 L 173.28528,40.469096 L 175.4622,39.425225 L 178.18335,38.381355 L 180.36026,38.381355 L 180.36026,38.381355 L 183.08141,38.381355 L 185.80256,39.425225 L 187.97947,40.469096 L 189.61216,42.034902 L 191.24485,43.600709 L 192.87754,46.210386 L 193.42177,48.298128 L 193.42177,50.907804 L 193.42177,130.24199 L 298.45803,130.24199 L 298.45803,130.24199 L 296.28111,117.1936 L 293.01574,104.66716 L 288.6619,92.140703 L 283.21961,80.658124 L 276.14463,69.69748 L 269.06964,59.258771 L 260.36198,49.863933 L 251.11008,40.991031 L 240.76972,32.640065 L 229.88513,25.332969 L 218.45632,19.591678 L 205.93904,14.372325 L 193.42177,10.196842 L 179.81603,7.0652301 L 173.28528,6.021359 L 166.2103,4.977488 L 159.13532,4.4555525 L 152.06034,4.4555525 L 152.06034,4.4555525 L 144.98536,4.4555525 L 138.45461,4.977488 L 131.37963,6.021359 L 124.30464,7.0652301 L 111.24314,10.196842 L 98.725866,14.372325 L 86.208592,19.591678 L 74.779776,25.332969 L 63.895189,32.640065 L 53.554832,40.991031 L 44.302933,49.863933 L 35.595264,59.258771 L 27.976054,69.69748 L 21.445302,80.658124 L 16.003008,92.140703 L 11.649174,104.66716 L 8.3837976,117.1936 L 6.2068803,130.24199 L 110.15468,130.24199 z "
     id="path2283" />
  <path
     style="fill:#ffffff;fill-opacity:1;fill-rule:nonzero;stroke:none"
     d="M 193.42177,155.29489 L 193.42177,234.62907 L 193.42177,234.62907 L 193.42177,237.23875 L 192.87754,239.3265 L 191.24485,241.41423 L 189.61216,243.50198 L 187.97947,245.06778 L 185.80256,246.11166 L 183.08141,246.63358 L 180.36026,247.15553 L 180.36026,247.15553 L 178.18335,246.63358 L 175.4622,246.11166 L 173.28528,245.06778 L 171.10837,243.50198 L 169.47568,241.41423 L 168.38722,239.3265 L 167.84299,237.23875 L 167.29876,234.62907 L 167.29876,145.90005 L 136.82192,145.90005 L 136.82192,234.62907 L 136.82192,234.62907 L 136.27769,237.23875 L 135.73346,239.3265 L 134.10077,241.41423 L 132.46808,243.50198 L 130.8354,245.06778 L 128.65848,246.11166 L 125.93733,246.63358 L 123.76042,247.15553 L 123.76042,247.15553 L 121.03927,246.63358 L 118.31812,246.11166 L 116.1412,245.06778 L 114.50852,243.50198 L 112.87583,241.41423 L 111.24314,239.3265 L 110.69891,237.23875 L 110.15468,234.62907 L 110.15468,155.29489 L 5.662651,155.29489 L 5.662651,155.29489 L 6.2068803,162.08005 L 7.295339,168.8652 L 8.3837976,175.65038 L 10.016486,181.91359 L 12.193403,188.69875 L 14.37032,194.96198 L 19.812614,206.96649 L 25.799136,218.44908 L 33.418347,229.40972 L 42.126016,239.3265 L 51.377915,248.72133 L 61.718272,257.07229 L 73.147088,264.90133 L 84.575904,271.16456 L 97.093178,276.90584 L 103.62393,278.99359 L 110.15468,281.08132 L 116.68543,283.16907 L 123.76042,284.21295 L 130.8354,285.77875 L 137.91038,286.30068 L 144.98536,286.82262 L 152.06034,286.82262 L 152.06034,286.82262 L 159.67955,286.82262 L 166.75453,286.30068 L 173.82951,285.77875 L 180.90449,284.21295 L 187.43525,283.16907 L 194.51023,281.08132 L 201.04098,278.99359 L 207.57173,276.90584 L 220.08901,271.16456 L 231.51782,264.90133 L 242.94664,257.07229 L 253.28699,248.72133 L 262.53889,239.3265 L 271.24656,229.40972 L 278.32154,218.44908 L 284.8523,206.96649 L 290.29459,194.96198 L 292.47151,188.69875 L 294.64842,181.91359 L 296.28111,175.65038 L 297.36957,168.8652 L 298.45803,162.08005 L 299.00226,155.29489 L 193.42177,155.29489 z "
     id="path2323" />
</svg>
