<?xml version="1.0" encoding="UTF-8" standalone="no"?>
<!-- Created with Inkscape (http://www.inkscape.org/) -->

<svg
   xmlns:dc="http://purl.org/dc/elements/1.1/"
   xmlns:cc="http://creativecommons.org/ns#"
   xmlns:rdf="http://www.w3.org/1999/02/22-rdf-syntax-ns#"
   xmlns:svg="http://www.w3.org/2000/svg"
   xmlns="http://www.w3.org/2000/svg"
   xmlns:sodipodi="http://sodipodi.sourceforge.net/DTD/sodipodi-0.dtd"
   xmlns:inkscape="http://www.inkscape.org/namespaces/inkscape"
   width="200"
   height="200"
   id="svg6802"
   sodipodi:version="0.32"
   inkscape:version="0.48.1 "
   version="1.0"
   sodipodi:docname="palette-3.svg"
   inkscape:output_extension="org.inkscape.output.svg.inkscape">
  <defs
     id="defs6804">
    <inkscape:perspective
       sodipodi:type="inkscape:persp3d"
       inkscape:vp_x="0 : 526.18109 : 1"
       inkscape:vp_y="0 : 1000 : 0"
       inkscape:vp_z="744.09448 : 526.18109 : 1"
       inkscape:persp3d-origin="372.04724 : 350.78739 : 1"
       id="perspective6810" />
  </defs>
  <sodipodi:namedview
     id="base"
     pagecolor="#ffffff"
     bordercolor="#666666"
     borderopacity="1.0"
     gridtolerance="10000"
     guidetolerance="10"
     objecttolerance="10"
     inkscape:pageopacity="0.0"
     inkscape:pageshadow="2"
     inkscape:zoom="0.98994949"
     inkscape:cx="-35.051857"
     inkscape:cy="29.907979"
     inkscape:document-units="px"
     inkscape:current-layer="layer1"
     showgrid="false"
     inkscape:window-width="1280"
     inkscape:window-height="744"
     inkscape:window-x="-4"
     inkscape:window-y="-4"
     inkscape:window-maximized="1" />
  <metadata
     id="metadata6807">
    <rdf:RDF>
      <cc:Work
         rdf:about="">
        <dc:format>image/svg+xml</dc:format>
        <dc:type
           rdf:resource="http://purl.org/dc/dcmitype/StillImage" />
        <dc:title>Palette</dc:title>
        <cc:license
           rdf:resource="http://creativecommons.org/licenses/publicdomain/" />
        <dc:subject>
          <rdf:Bag>
            <rdf:li>palette</rdf:li>
            <rdf:li>paint</rdf:li>
            <rdf:li>color</rdf:li>
          </rdf:Bag>
        </dc:subject>
        <dc:contributor>
          <cc:Agent>
            <dc:title>Benjamin Pavie</dc:title>
          </cc:Agent>
        </dc:contributor>
      </cc:Work>
      <cc:License
         rdf:about="http://creativecommons.org/licenses/publicdomain/">
        <cc:permits
           rdf:resource="http://creativecommons.org/ns#Reproduction" />
        <cc:permits
           rdf:resource="http://creativecommons.org/ns#Distribution" />
        <cc:permits
           rdf:resource="http://creativecommons.org/ns#DerivativeWorks" />
      </cc:License>
    </rdf:RDF>
  </metadata>
  <g
     inkscape:label="Layer 1"
     inkscape:groupmode="layer"
     id="layer1"
     transform="translate(-35.642872,-59.576462)">
    <path
       inkscape:connector-curvature="0"
       style="fill:#000000;fill-opacity:1;stroke:none"
       d="m 125.32301,71.554735 c -22.07861,0 -85.429258,3.951023 -85.319769,57.267445 0.0047,2.99651 5.705953,13.42735 10.465116,14.53488 35.23493,8.19981 37.147209,36.43958 35.02907,58.72093 -0.161861,1.68721 2.740651,13.44656 5.232558,16.42442 20.207535,24.14823 27.082375,34.73833 54.360465,34.73837 54.55628,0 85.17442,-27.59098 85.17442,-82.84884 0,-55.25795 -50.38563,-98.837205 -104.94186,-98.837205 z M 70.09045,109.63613 c 4.588233,0.26991 9.95293,2.15995 14.97093,5.52326 10.035954,6.7266 15.00335,17.06162 11.046512,22.96511 -3.956884,5.90354 -15.400047,5.12777 -25.436047,-1.59883 -10.036046,-6.72666 -14.858,-16.91628 -10.901162,-22.81977 1.978418,-2.95177 5.731535,-4.33968 10.319767,-4.06977 z"
       id="path6822" />
    <path
       sodipodi:type="arc"
       style="fill:#ff7a00;fill-opacity:1;stroke:none"
       id="path6824"
       sodipodi:cx="417.25"
       sodipodi:cy="149.64343"
       sodipodi:rx="3.6875"
       sodipodi:ry="3.84375"
       d="m 420.9375,149.64343 a 3.6875,3.84375 0 1 1 -7.375,0 3.6875,3.84375 0 1 1 7.375,0 z"
       transform="matrix(4.4146628,0,0,4.2352051,-1714.5149,-532.04295)" />
    <path
       sodipodi:type="arc"
       style="fill:#95d300;fill-opacity:1;stroke:none"
       id="path6826"
       sodipodi:cx="417.25"
       sodipodi:cy="149.64343"
       sodipodi:rx="3.6875"
       sodipodi:ry="3.84375"
       d="m 420.9375,149.64343 a 3.6875,3.84375 0 1 1 -7.375,0 3.6875,3.84375 0 1 1 7.375,0 z"
       transform="matrix(4.4146628,0,0,4.2352051,-1668.2939,-509.07783)" />
    <path
       sodipodi:type="arc"
       style="fill:#00a6e4;fill-opacity:1;stroke:none"
       id="path6828"
       sodipodi:cx="417.25"
       sodipodi:cy="149.64343"
       sodipodi:rx="3.6875"
       sodipodi:ry="3.84375"
       d="m 420.9375,149.64343 a 3.6875,3.84375 0 1 1 -7.375,0 3.6875,3.84375 0 1 1 7.375,0 z"
       transform="matrix(4.4146628,0,0,4.2352051,-1640.6776,-466.92667)" />
    <path
       sodipodi:type="arc"
       style="fill:#f9de00;fill-opacity:1;stroke:none"
       id="path6830"
       sodipodi:cx="417.25"
       sodipodi:cy="149.64343"
       sodipodi:rx="3.6875"
       sodipodi:ry="3.84375"
       d="m 420.9375,149.64343 a 3.6875,3.84375 0 1 1 -7.375,0 3.6875,3.84375 0 1 1 7.375,0 z"
       transform="matrix(4.4146628,0,0,4.2352051,-1663.0884,-425.10265)" />
    <path
       sodipodi:type="arc"
       style="fill:#e600ad;fill-opacity:1;stroke:none"
       id="path6832"
       sodipodi:cx="417.25"
       sodipodi:cy="149.64343"
       sodipodi:rx="3.6875"
       sodipodi:ry="3.84375"
       d="m 420.9375,149.64343 a 3.6875,3.84375 0 1 1 -7.375,0 3.6875,3.84375 0 1 1 7.375,0 z"
       transform="matrix(4.4146628,0,0,4.2352051,-1710.1814,-420.45148)" />
  </g>
</svg>
