<?xml version="1.0" encoding="UTF-8" standalone="no"?>
<!-- Created with Inkscape (http://www.inkscape.org/) -->

<svg
   xmlns:dc="http://purl.org/dc/elements/1.1/"
   xmlns:cc="http://creativecommons.org/ns#"
   xmlns:rdf="http://www.w3.org/1999/02/22-rdf-syntax-ns#"
   xmlns:svg="http://www.w3.org/2000/svg"
   xmlns="http://www.w3.org/2000/svg"
   xmlns:xlink="http://www.w3.org/1999/xlink"
   xmlns:sodipodi="http://sodipodi.sourceforge.net/DTD/sodipodi-0.dtd"
   xmlns:inkscape="http://www.inkscape.org/namespaces/inkscape"
   width="400"
   height="400"
   id="svg2"
   version="1.1"
   inkscape:version="0.91 r13725"
   inkscape:export-filename="C:\Users\sound_000\Documents\Visual Studio 2013\Projects\ControlVUE\trunk\code\Figures\putty_terminal.png"
   inkscape:export-xdpi="5.4000001"
   inkscape:export-ydpi="5.4000001"
   sodipodi:docname="putty_terminal.svg">
  <defs
     id="defs4">
    <linearGradient
       id="2">
      <stop
         stop-opacity="0.4"
         stop-color="#fff"
         id="G" />
      <stop
         stop-opacity="0"
         stop-color="#fff"
         offset="1"
         id="H" />
    </linearGradient>
    <linearGradient
       id="3">
      <stop
         stop-color="#2e3436"
         id="I" />
      <stop
         stop-opacity="0"
         stop-color="#2e3436"
         offset="1"
         id="J" />
    </linearGradient>
    <linearGradient
       id="6">
      <stop
         stop-color="#555753"
         id="O" />
      <stop
         stop-color="#2e3436"
         offset="1"
         id="P" />
    </linearGradient>
    <linearGradient
       id="7">
      <stop
         stop-color="#d3d7cf"
         id="Q" />
      <stop
         stop-color="#babdb6"
         offset="1"
         id="R" />
    </linearGradient>
    <radialGradient
       gradientTransform="matrix(8.3354868,0,0,-1.1059496,168.8264,490.33292)"
       gradientUnits="userSpaceOnUse"
       xlink:href="#3"
       id="8"
       r="22.16"
       cy="42.11"
       cx="24.708" />
    <linearGradient
       gradientUnits="userSpaceOnUse"
       xlink:href="#7"
       id="9"
       y2="38.969"
       x2="0"
       y1="9.03"
       gradientTransform="matrix(7.9437404,0,0,7.9437404,184.12882,132.92863)" />
    <linearGradient
       gradientUnits="userSpaceOnUse"
       xlink:href="#6"
       id="A"
       y2="34.469"
       x2="0"
       y1="13.531"
       gradientTransform="matrix(7.9437404,0,0,7.9437404,184.12882,132.92863)" />
    <linearGradient
       gradientUnits="userSpaceOnUse"
       xlink:href="#2"
       id="B"
       y2="39.02"
       x2="0"
       y1="8.979"
       gradientTransform="matrix(7.9437404,0,0,7.9437404,184.12882,132.92863)" />
    <linearGradient
       gradientUnits="userSpaceOnUse"
       xlink:href="#2"
       id="C"
       y2="31.659"
       x2="24"
       y1="-40.07"
       x1="-0.174"
       gradientTransform="matrix(7.9437404,0,0,7.9437404,184.12882,132.92863)" />
    <linearGradient
       gradientUnits="userSpaceOnUse"
       xlink:href="#2"
       id="D"
       y2="13.573"
       x2="0"
       y1="34.427"
       gradientTransform="matrix(7.9437404,0,0,7.9437404,184.12882,132.92863)" />
  </defs>
  <sodipodi:namedview
     id="base"
     pagecolor="#ffffff"
     bordercolor="#666666"
     borderopacity="1.0"
     inkscape:pageopacity="0.0"
     inkscape:pageshadow="2"
     inkscape:zoom="1.1521739"
     inkscape:cx="182.85714"
     inkscape:cy="201.85984"
     inkscape:document-units="px"
     inkscape:current-layer="layer1"
     showgrid="false"
     borderlayer="true"
     fit-margin-top="0"
     fit-margin-left="0"
     fit-margin-right="0"
     fit-margin-bottom="0"
     inkscape:window-width="1366"
     inkscape:window-height="705"
     inkscape:window-x="-8"
     inkscape:window-y="-8"
     inkscape:window-maximized="1" />
  <metadata
     id="metadata7">
    <rdf:RDF>
      <cc:Work
         rdf:about="">
        <dc:format>image/svg+xml</dc:format>
        <dc:type
           rdf:resource="http://purl.org/dc/dcmitype/StillImage" />
        <dc:title></dc:title>
      </cc:Work>
    </rdf:RDF>
  </metadata>
  <g
     inkscape:label="Layer 1"
     inkscape:groupmode="layer"
     id="layer1"
     transform="translate(-176.1875,-127.40625)">
    <g
       id="g3442"
       transform="matrix(1.1550712,0,0,1.1550712,-56.3815,-50.223338)">
      <path
         id="E"
         d="m 559.47773,443.75985 a 184.69914,24.505821 0 1 0 -369.39828,0 184.69914,24.505821 0 1 0 369.39828,0 z"
         inkscape:connector-curvature="0"
         style="opacity:0.8;fill:url(#8)" />
      <path
         style="fill:#2e3436"
         inkscape:connector-curvature="0"
         d="m 225.58522,195.98207 c -8.80167,0 -15.88749,7.08582 -15.88749,15.88748 l 0,223.4177 c 0,8.80166 7.08582,15.88748 15.88749,15.88748 l 298.38674,0 c 8.80167,0 15.88748,-7.08582 15.88748,-15.88748 l 0,-223.4177 c 0,-8.80166 -7.08581,-15.88748 -15.88748,-15.88748 l -298.38674,0 z"
         id="S" />
      <path
         style="fill:url(#9)"
         inkscape:connector-curvature="0"
         d="m 225.58522,204.67054 c -4.16358,0 -7.19902,3.03543 -7.19902,7.19901 l 0,223.4177 c 0,4.16358 3.03544,7.19901 7.19902,7.19901 l 298.38674,0 c 4.16358,0 7.19902,-3.03543 7.19902,-7.19901 l 0,-223.4177 c 0,-4.16358 -3.03544,-7.19901 -7.19902,-7.19901 l -298.38674,0 z"
         id="T" />
      <rect
         style="fill:#2e3436"
         width="259.08511"
         height="186.74144"
         x="245.23207"
         y="230.20767"
         id="U" />
      <path
         style="fill:url(#A)"
         inkscape:connector-curvature="0"
         d="m 255.37424,240.41737 0,166.32206 238.8087,0 0,-166.32206 -238.8087,0 z"
         id="V" />
      <path
         style="fill:#2e3436"
         inkscape:connector-curvature="0"
         d="m 282.92909,260.52496 c -3.81393,0.86714 -6.50366,4.28102 -6.45429,8.19198 l 0,12.16385 c -0.0397,3.32918 1.91528,6.35941 4.96484,7.6955 l 51.13783,21.84529 -51.13783,21.84529 c -3.04956,1.33609 -5.00455,4.36632 -4.96484,7.69549 l 0,12.16386 c -0.004,2.76302 1.36744,5.3468 3.65872,6.89093 2.29129,1.54413 5.20109,1.84581 7.76041,0.80457 l 79.93389,-33.51266 c 3.04956,-1.3361 5.00455,-4.36632 4.96483,-7.6955 l 0,-16.38396 c 0.0397,-3.32918 -1.91527,-6.3594 -4.96483,-7.6955 l -79.93389,-33.51266 c -1.56475,-0.67116 -3.29816,-0.84453 -4.96484,-0.49648 z"
         id="W" />
      <path
         style="fill:#2e3436"
         inkscape:connector-curvature="0"
         d="m 363.35946,352.68169 c -3.81393,0.82355 -6.50366,4.06585 -6.45429,7.78024 l 0,18.38967 c 0.0548,4.27514 3.6906,7.72813 8.19199,7.78024 l 99.79323,0 c 4.50139,-0.0524 8.13712,-3.5051 8.19199,-7.78024 l 0,-18.38967 c -0.0548,-4.27514 -3.6906,-7.72814 -8.19199,-7.78024 l -99.79323,0 c -0.57767,-0.058 -1.16006,-0.058 -1.7377,0 z"
         id="X" />
      <path
         id="c"
         d="m 284.67286,268.66683 0,12.31996 68.99178,29.46078 -68.99178,29.46078 0,12.31996 79.91907,-33.53172 0,-16.49804 -79.91907,-33.53172 z"
         inkscape:connector-curvature="0"
         style="fill:#00ff00" />
      <path
         id="d"
         d="m 365.18007,377.58572 0,-15.90125 99.70425,0 0,15.90125 -99.70425,0"
         inkscape:connector-curvature="0"
         style="fill:#00ff00" />
      <path
         style="opacity:0.8;fill:none;stroke:url(#B);stroke-width:8.27737808;stroke-linecap:round;stroke-linejoin:round"
         inkscape:connector-curvature="0"
         d="m 225.58522,208.39416 c -2.19898,0 -3.47539,1.27641 -3.47539,3.47539 l 0,223.4177 c 0,2.19898 1.27641,3.47539 3.47539,3.47539 l 298.38674,0 c 2.19898,0 3.47539,-1.27641 3.47539,-3.47539 l 0,-223.4177 c 0,-2.19898 -1.27641,-3.47539 -3.47539,-3.47539 l -298.38674,0 z"
         id="Z" />
      <path
         style="opacity:0.6;fill:url(#C)"
         inkscape:connector-curvature="0"
         d="m 255.37424,240.41737 0,123.62446 c 81.55962,-18.16796 161.73919,-31.56017 238.8087,-33.26442 l 0,-90.36004 -238.8087,0 z"
         id="a" />
      <path
         style="opacity:0.6;fill:none;stroke:url(#D);stroke-width:8.27737808;stroke-linecap:round"
         inkscape:connector-curvature="0"
         d="m 259.8426,244.88572 0,157.38536 229.87198,0 0,-157.38536 -229.87198,0 z"
         id="b" />
    </g>
  </g>
</svg>
