<?xml version="1.0" encoding="UTF-8" standalone="no"?>
<!-- Created with Inkscape (http://www.inkscape.org/) -->
<svg
   xmlns:dc="http://purl.org/dc/elements/1.1/"
   xmlns:cc="http://web.resource.org/cc/"
   xmlns:rdf="http://www.w3.org/1999/02/22-rdf-syntax-ns#"
   xmlns:svg="http://www.w3.org/2000/svg"
   xmlns="http://www.w3.org/2000/svg"
   xmlns:sodipodi="http://sodipodi.sourceforge.net/DTD/sodipodi-0.dtd"
   xmlns:inkscape="http://www.inkscape.org/namespaces/inkscape"
   version="1.1"
   width="720"
   height="720"
   id="svg2"
   sodipodi:version="0.32"
   inkscape:version="0.45.1"
   sodipodi:docname="6partialmoonsrainbow.svg"
   inkscape:output_extension="org.inkscape.output.svg.inkscape"
   sodipodi:docbase="C:\Documents and Settings\Owner\My Documents\Downloads">
  <metadata
     id="metadata26">
    <rdf:RDF>
      <cc:Work
         rdf:about="">
        <dc:format>image/svg+xml</dc:format>
        <dc:type
           rdf:resource="http://purl.org/dc/dcmitype/StillImage" />
      </cc:Work>
    </rdf:RDF>
  </metadata>
  <sodipodi:namedview
     inkscape:window-height="708"
     inkscape:window-width="1024"
     inkscape:pageshadow="2"
     inkscape:pageopacity="0.0"
     guidetolerance="10.0"
     gridtolerance="10.0"
     objecttolerance="10.0"
     borderopacity="1.0"
     bordercolor="#666666"
     pagecolor="#ffffff"
     id="base"
     inkscape:zoom="0.52361111"
     inkscape:cx="391.6335"
     inkscape:cy="262.44172"
     inkscape:window-x="-4"
     inkscape:window-y="-4"
     inkscape:current-layer="svg2" />
  <defs
     id="defs4">
    <inkscape:path-effect
       effect="spiro"
       id="path-effect3201" />
    <inkscape:path-effect
       effect="spiro"
       id="path-effect3197" />
    <inkscape:path-effect
       effect="spiro"
       id="path-effect3193" />
    <inkscape:path-effect
       effect="spiro"
       id="path-effect3189" />
    <inkscape:path-effect
       effect="spiro"
       id="path-effect3185" />
    <inkscape:path-effect
       effect="spiro"
       id="path-effect3181" />
    <inkscape:path-effect
       effect="spiro"
       id="path-effect3177" />
    <inkscape:path-effect
       effect="spiro"
       id="path-effect3173" />
    <inkscape:path-effect
       effect="spiro"
       id="path-effect3169" />
    <inkscape:path-effect
       effect="spiro"
       id="path-effect3165" />
    <inkscape:path-effect
       effect="spiro"
       id="path-effect3161" />
    <inkscape:path-effect
       effect="spiro"
       id="path-effect3157" />
    <inkscape:path-effect
       effect="spiro"
       id="path-effect3153" />
    <inkscape:path-effect
       effect="spiro"
       id="path-effect3149" />
  </defs>
  <path
     d="m 329.6885371631169,144.9454094414912 c 0,0 -9.3691648630806,-18.5615530306314 -37.6534361478519,-6.3639610390736"
     id="path2983"
     style="fill:none;stroke:#ff0000;stroke-width:2;stroke-linecap:butt;stroke-linejoin:miter;stroke-opacity:1;display:none" />
  <path
     d="m 363.9334628775732,45.00000000000023 c -86.9909013863513,0 -157.4628975265007,70.47199614014957 -157.4628975265007,157.46289752650076 0,86.9909013863516 70.4719961401494,157.5371024734973 157.4628975265007,157.5371024734973 C 320.4380121843975,284.6636695013112 346.2543761951405,188.375309350419 421.5907066938274,144.8798586572435 446.4490258620106,130.5279013938912 473.6185922145345,123.7021828659796 500.396360404074,123.7314487632506 473.1572568493684,76.66960203250309 422.2210665240078,45.00000000000017 363.9334628775732,45.00000000000017 z"
     id="path2859"
     style="fill:#f00000;fill-opacity:1;stroke:none"
     inkscape:export-xdpi="714.34534"
     inkscape:export-ydpi="714.34534" />
  <path
     d="M 636.7314650696697,202.4999999999994 C 593.2360143764938,127.1636695013122 496.969477393651,101.369128658619 421.6331468949634,144.8645793517943 346.2968163962764,188.36003004497 320.4380121843976,284.6636695013116 363.9334628775732,359.9999999999984 c 43.495450693176,-75.3363304986877 139.791798677965,-101.1228835074835 215.128129176652,-57.6274328143082 24.8583191681837,14.3519572633519 44.3543479886989,34.468632670489 57.7178870729673,57.6734931279173 27.1372030404824,-47.1206790200647 29.0957877656939,-107.0675148300769 -0.048014057522,-157.5460603136077 z"
     id="path2864"
     style="fill:#ff8000;fill-opacity:1;stroke:none"
     inkscape:export-filename="C:\Documents and Settings\Owner\My Documents\Downloads\path2859.png"
     inkscape:export-xdpi="714.34534"
     inkscape:export-ydpi="714.34534" />
  <path
     d="m 636.7314650696688,517.499999999997 c 43.4954506931754,-75.3363304986875 17.7009098504822,-171.6028674815299 -57.635420648205,-215.0983181747055 -75.3363304986871,-43.495450693176 -171.6671308507158,-17.7380123239801 -215.162581543891,57.5983181747069 86.9909013863519,-3e-13 157.4708853603976,70.5018071420955 157.4708853604062,157.4927085284379 0,28.7039145267044 -7.6735375320087,55.6463084617527 -21.0877666372794,78.8219030219096 54.3763065951897,-0.058832289317 107.2710816457609,-28.3360660668264 136.4148834689789,-78.8146115503565 z"
     id="path2866"
     style="fill:#ffff00;fill-opacity:1;stroke:none"
     inkscape:export-filename="C:\Documents and Settings\Owner\My Documents\Downloads\path2859.png"
     inkscape:export-xdpi="714.34534"
     inkscape:export-ydpi="714.34534" />
  <path
     d="m 363.9334628775732,674.9999999999954 c 86.9909013863513,-9e-13 157.4628975265,-70.4719961401499 157.4628975265008,-157.4628975265007 3e-13,-86.9909013863519 -70.4719961401499,-157.5371024734973 -157.4628975265009,-157.5371024734969 43.4954506931762,75.3363304986871 17.679086682433,171.624690649579 -57.6572438162425,215.1201413427581 -24.8583191681832,14.3519572633522 -52.0278855207072,21.177675791263 -78.8056537102477,21.1484098939927 C 254.7096689057902,643.3303979674955 305.6458592311495,674.9999999999987 363.9334628775841,675 z"
     id="path2868"
     style="fill:#007940;fill-opacity:1;stroke:none"
     inkscape:export-filename="C:\Documents and Settings\Owner\My Documents\Downloads\path2859.png"
     inkscape:export-xdpi="714.34534"
     inkscape:export-ydpi="714.34534" />
  <path
     d="m 91.13546068547711,517.4999999999977 c 43.4954506931764,75.3363304986859 139.76198767601897,101.1308713413796 215.09831817470561,57.6354206482048 75.3363304986885,-43.4954506931756 101.1951347105666,-139.799090149517 57.6996840173905,-215.1354206482045 -43.4954506931755,75.3363304986883 -139.7917986779646,101.1228835074841 -215.1281291766489,57.62743281432 -24.8583191681833,-14.3519572633518 -44.3543479886981,-34.468632670489 -57.71788707296813,-57.6734931279172 -27.13720304048297,47.120679020064 -29.09578776569375,107.067514830076 0.048014057522,157.5460603136085 z"
     id="path2891"
     style="fill:#4040ff;fill-opacity:1;stroke:none"
     inkscape:export-filename="C:\Documents and Settings\Owner\My Documents\Downloads\path2859.png"
     inkscape:export-xdpi="714.34534"
     inkscape:export-ydpi="714.34534" />
  <path
     d="m 91.13546068547641,202.4999999999995 c -43.49545069317448,75.3363304986873 -17.70090985048128,171.60286748153 57.63542064820497,215.0983181747056 75.336330498688,43.4954506931768 171.6671308507164,17.7380123239806 215.1625815438918,-57.5983181747067 -86.990901386352,6e-13 -157.470885360398,-70.5018071420953 -157.4708853604062,-157.4927085284387 -6e-13,-28.7039145267041 7.6735375320091,-55.6463084617522 21.0877666372799,-78.8219030219103 -54.3763065951891,0.058832289317 -107.27108164576,28.3360660668265 -136.41488346897946,78.8146115503574 z"
     id="path2893"
     style="fill:#a000c0;fill-opacity:1;stroke:none"
     inkscape:export-filename="C:\Documents and Settings\Owner\My Documents\Downloads\path2859.png"
     inkscape:export-xdpi="714.34534"
     inkscape:export-ydpi="714.34534" />
</svg>
