<?xml version="1.0" encoding="UTF-8" standalone="no"?>
<!-- Created with Inkscape (http://www.inkscape.org/) -->

<svg
   xmlns:dc="http://purl.org/dc/elements/1.1/"
   xmlns:cc="http://creativecommons.org/ns#"
   xmlns:rdf="http://www.w3.org/1999/02/22-rdf-syntax-ns#"
   xmlns:svg="http://www.w3.org/2000/svg"
   xmlns="http://www.w3.org/2000/svg"
   xmlns:sodipodi="http://sodipodi.sourceforge.net/DTD/sodipodi-0.dtd"
   xmlns:inkscape="http://www.inkscape.org/namespaces/inkscape"
   width="668.61115"
   height="317.67422"
   id="svg2862"
   version="1.1"
   inkscape:version="0.48.1 "
   sodipodi:docname="sensorvue_mdi_background.svg"
   inkscape:export-filename="C:\Documents and Settings\Soundar\My Documents\Visual Studio 2008\Projects\ControlVUE\trunk\code\Figures\sensorvue_mdi_background.png"
   inkscape:export-xdpi="23.690001"
   inkscape:export-ydpi="23.690001">
  <defs
     id="defs2864">
    <inkscape:perspective
       sodipodi:type="inkscape:persp3d"
       inkscape:vp_x="0 : 495 : 1"
       inkscape:vp_y="0 : 1000 : 0"
       inkscape:vp_z="765 : 495 : 1"
       inkscape:persp3d-origin="382.5 : 330 : 1"
       id="perspective2871" />
    <inkscape:perspective
       id="perspective2881"
       inkscape:persp3d-origin="0.5 : 0.33333333 : 1"
       inkscape:vp_z="1 : 0.5 : 1"
       inkscape:vp_y="0 : 1000 : 0"
       inkscape:vp_x="0 : 0.5 : 1"
       sodipodi:type="inkscape:persp3d" />
    <inkscape:perspective
       id="perspective2895"
       inkscape:persp3d-origin="0.5 : 0.33333333 : 1"
       inkscape:vp_z="1 : 0.5 : 1"
       inkscape:vp_y="0 : 1000 : 0"
       inkscape:vp_x="0 : 0.5 : 1"
       sodipodi:type="inkscape:persp3d" />
  </defs>
  <sodipodi:namedview
     inkscape:document-units="in"
     pagecolor="#ffffff"
     bordercolor="#666666"
     borderopacity="1.0"
     inkscape:pageopacity="0.0"
     inkscape:pageshadow="2"
     inkscape:zoom="1.1775109"
     inkscape:cx="470.75586"
     inkscape:cy="102.60487"
     inkscape:current-layer="layer1"
     id="namedview2866"
     showgrid="false"
     inkscape:window-width="1280"
     inkscape:window-height="744"
     inkscape:window-x="-4"
     inkscape:window-y="-4"
     inkscape:window-maximized="1"
     units="in"
     borderlayer="true"
     fit-margin-top="0"
     fit-margin-left="0"
     fit-margin-right="0"
     fit-margin-bottom="0" />
  <metadata
     id="metadata2868">
    <rdf:RDF>
      <cc:Work
         rdf:about="">
        <dc:format>image/svg+xml</dc:format>
        <dc:type
           rdf:resource="http://purl.org/dc/dcmitype/StillImage" />
        <dc:title></dc:title>
      </cc:Work>
    </rdf:RDF>
  </metadata>
  <g
     inkscape:label="Layer 1"
     inkscape:groupmode="layer"
     id="layer1"
     transform="translate(-41.840447,-98.162241)">
    <path
       id="path4703"
       style="fill:#00112b;fill-opacity:1;fill-rule:nonzero;stroke:none"
       d="m 701.60967,310.7545 c 0,16.97409 -13.50723,30.73641 -30.16612,30.73641 0,0 -598.442678,0 -598.442678,0 -16.658867,0 -30.166097,-13.76232 -30.166097,-30.73641 0,0 0,-181.85585 0,-181.85585 0,-16.97403 13.50723,-30.736409 30.166097,-30.736409 0,0 598.442678,0 598.442678,0 16.65889,0 30.16612,13.762379 30.16612,30.736409 0,0 0,181.85585 0,181.85585 z"
       inkscape:connector-curvature="0" />
    <path
       id="path4743"
       style="fill:#ffffff;fill-opacity:1;fill-rule:nonzero;stroke:none"
       d="m 275.18134,213.16301 c 0,1.85916 0,25.50428 0.37536,29.88286 0,0 7.15506,0 7.15506,0 5.89817,0 11.54866,0 18.32478,-0.54778 6.77986,-0.54782 15.31567,-13.6817 17.19917,-17.73199 0.37535,-0.65662 0.75043,-0.98676 1.5083,-0.65662 0,0 2.50637,0.87423 2.50637,0.87423 0.37882,0.21946 0.37882,0.32848 0.25511,0.98492 -0.37883,0.76727 -5.39913,18.82943 -6.15328,21.78413 -3.26424,-0.21946 -39.4148,-0.32852 -50.95971,-0.32852 -12.42664,0 -16.94778,0.32852 -18.57991,0.32852 -0.87799,0 -1.00554,-0.21946 -1.00554,-0.98489 0,0 0,-2.73711 0,-2.73711 0,-0.54775 0.12755,-0.76543 0.87798,-0.76543 0,0 3.89458,0 3.89458,0 4.64495,0 5.39538,-1.53267 5.39538,-2.73708 0,-2.08045 0.37498,-29.33689 0.37498,-36.01357 0,0 0,-6.13081 0,-6.13081 0,-7.00498 -0.24773,-18.60804 -0.37498,-20.3602 -0.24774,-2.84594 -0.87799,-3.93961 -3.76702,-3.93961 0,0 -4.64498,0 -4.64498,0 -0.7504,0 -0.87796,-0.54781 -0.87796,-1.0956 0,0 0,-2.62639 0,-2.62639 0,-0.54779 0.12756,-0.76731 0.87796,-0.76731 1.38074,0 5.90191,0.32812 17.32676,0.32812 14.6853,0 19.95687,-0.32812 21.08625,-0.32812 1.00554,0 1.12938,0.32812 1.12938,1.0956 0,0 0,2.51759 0,2.51759 0,0.54782 -0.25112,0.87611 -1.25694,0.87611 0,0 -5.89816,0 -5.89816,0 -3.8908,0 -4.39358,1.09367 -4.39358,4.05029 0,1.42199 -0.37536,17.95145 -0.37536,25.61302 0,0 0,9.41564 0,9.41564 z"
       inkscape:connector-curvature="0" />
    <path
       id="path4745"
       style="fill:#ffffff;fill-opacity:1;fill-rule:nonzero;stroke:none"
       d="m 362.41918,223.45104 c 0,-12.69678 -5.02021,-18.93636 -10.54315,-18.93636 -3.13665,0 -5.14773,0.76543 -6.77611,2.95469 -2.51387,3.3937 -4.1422,8.10058 -4.1422,16.96843 0,6.34839 0.62282,10.50749 3.13665,15.21437 1.62836,2.9566 3.63947,4.70689 8.28442,4.70689 6.90371,0 10.04036,-8.86595 10.04036,-20.90802 z m -32.63497,17.51435 c -4.77251,-4.59623 -6.65603,-10.39868 -6.65603,-17.29486 0,-4.9264 3.1404,-13.02508 10.79828,-18.17097 6.40089,-4.37855 12.80184,-5.58296 18.7,-5.58296 8.66337,0 14.56525,2.29995 20.21202,6.89618 6.14953,4.81756 8.65962,10.72885 8.65962,17.4055 0,6.34843 -3.13665,12.4792 -8.03306,17.0754 -6.02572,5.47419 -13.30459,7.66348 -21.8404,7.66348 -9.16615,0 -15.43948,-1.64154 -21.84043,-7.99177 z"
       inkscape:connector-curvature="0" />
    <path
       id="path4747"
       style="fill:#ffffff;fill-opacity:1;fill-rule:nonzero;stroke:none"
       d="m 412.25329,222.68561 c -6.15331,3.06541 -11.30104,4.70692 -11.30104,12.25968 0,5.03518 2.63764,7.1157 5.39912,7.2245 3.38808,-0.21945 5.90192,-2.95469 5.90192,-3.93961 0,0 0,-15.54457 0,-15.54457 z m -0.12756,-10.18103 c 0,-2.18933 -0.25111,-4.70692 -1.88349,-6.02013 -1.25316,-0.98489 -3.26424,-1.31315 -5.27154,-1.31315 -2.25873,0 -4.39362,0.43707 -6.65235,1.75216 -1.88346,1.09372 -0.37498,2.95469 -0.37498,6.45717 0,3.72199 -3.13668,6.23961 -8.16061,6.23961 -2.88529,0 -5.39913,-1.5327 -5.39913,-3.93961 0,-2.40881 0.87799,-5.69367 3.51563,-7.66345 5.27157,-4.15909 13.93494,-8.10058 24.0991,-8.10058 8.0368,0 10.16797,1.0956 12.80562,3.17418 2.76148,2.18933 3.51563,5.36538 3.51563,9.30499 0,0 0.24774,21.78412 0.24774,21.78412 0.12755,5.69177 0.50278,7.44209 2.88903,7.44209 1.75597,0 3.13669,-1.20253 3.63947,-1.96981 0.50276,-0.65659 0.87799,-0.76539 1.25694,-0.54778 0,0 1.75969,0.87608 1.75969,0.87608 0.499,0.21946 0.87795,0.54778 0.37498,1.5327 -1.1331,2.2981 -4.89634,7.44399 -12.68178,7.44399 -4.89262,0 -9.53757,-1.53273 -11.92382,-6.67668 0,0 -0.62663,0 -0.62663,0 -3.13668,2.51758 -5.77432,4.04841 -10.7945,5.69176 -2.51009,0.7654 -5.39538,0.98492 -9.03482,0.98492 -4.39733,0 -8.28819,-4.1591 -8.28819,-10.07038 0,-4.81757 2.63764,-9.85278 10.7945,-13.35528 9.79275,-4.05029 12.9294,-5.25464 16.19364,-7.22447 0,0 0,-5.80245 0,-5.80245 z"
       inkscape:connector-curvature="0" />
    <path
       id="path4749"
       style="fill:#ffffff;fill-opacity:1;fill-rule:nonzero;stroke:none"
       d="m 473.63418,214.36554 c 0,-1.96977 -0.12387,-3.8308 -1.00554,-5.25282 -1.88163,-2.95656 -6.02385,-4.92634 -9.5432,-4.92634 -2.25869,0 -4.64501,0.7654 -6.52475,3.06537 -3.01288,3.61132 -4.01839,7.33328 -4.01839,12.58798 0,12.91627 6.40092,21.89293 14.18255,21.89293 3.39182,0 4.77444,-1.0956 6.02762,-2.18929 1.00554,-0.87608 1.25694,-2.84589 1.25694,-5.25467 0,0 -0.37539,-19.92316 -0.37539,-19.92316 z m -0.37883,-35.13752 c -0.12356,-3.06538 -1.50455,-4.81566 -8.15873,-6.23956 -0.75418,-0.1088 -0.87796,-0.32851 -0.87796,-0.76543 0,0 0,-2.08045 0,-2.08045 0,-0.4371 0.24774,-0.76543 1.00554,-0.87611 7.40456,-0.54591 17.06975,-1.20253 21.21194,-1.96978 1.75969,-0.32811 2.26244,-0.54781 3.26424,-0.54781 0.75415,0 1.25693,0.76727 1.12938,1.97168 -0.50279,5.47231 -0.7504,21.34511 -0.7504,36.779 0,0 0,24.19104 0,24.19104 0,4.05029 0,8.3201 1.25315,10.07226 1.00554,1.42202 2.6339,1.53082 5.65052,1.20253 1.38074,-0.10881 1.87975,0.21945 2.00355,0.76727 0,0 0.37883,1.64148 0.37883,1.64148 0.12356,0.65662 -0.12356,0.98492 -0.87802,1.2044 0,0 -18.8313,4.1591 -18.8313,4.1591 -0.75037,0.21946 -1.38071,-0.10881 -1.75591,-0.98488 0,0 -2.00734,-5.47228 -2.00734,-5.47228 -4.01838,4.04841 -11.42672,6.67668 -16.8221,6.67668 -6.52847,0 -9.03856,-0.43901 -14.93672,-5.2547 -4.89638,-3.8308 -7.90919,-8.31819 -7.90919,-15.54454 0,-8.75717 1.75966,-14.44897 8.78714,-21.23446 4.8964,-4.70691 10.66695,-7.00686 18.5762,-7.00686 4.14219,0 7.7835,0.65659 10.16981,1.4239 0,0 -0.50278,-22.11248 -0.50278,-22.11248 z"
       inkscape:connector-curvature="0" />
    <path
       id="path4751"
       style="fill:#ffffff;fill-opacity:1;fill-rule:nonzero;stroke:none"
       d="m 537.90226,212.39577 c 0.11987,0.54775 0,0.76724 -0.50278,0.98486 0,0 -2.2587,0.87611 -2.2587,0.87611 -0.38267,0.21945 -0.7579,0.1088 -1.26065,-0.32811 0,0 -7.02377,-6.56788 -7.02377,-6.56788 -1.63588,-1.4239 -4.02213,-3.17418 -7.78166,-3.17418 -3.76702,0 -7.40643,2.18929 -7.40643,5.91125 0.24774,3.83081 1.75591,4.92453 11.0459,7.1157 6.14578,1.42202 9.16237,2.18742 12.92937,5.6918 3.26423,2.84588 4.01463,5.47228 4.01463,9.30305 0,9.74212 -8.78717,16.74898 -22.46696,16.74898 -7.03126,0 -13.18082,-2.1893 -14.68537,-3.17418 -0.50275,-0.32812 -0.63031,-0.76731 -0.75793,-1.42393 0,0 -1.62832,-10.50746 -1.62832,-10.50746 0,-0.54781 0.37498,-0.7673 0.87795,-0.87611 0,0 2.2587,-0.54778 2.2587,-0.54778 0.37538,-0.10881 0.63037,0 0.87799,0.43898 0,0 5.02017,6.45722 5.02017,6.45722 2.2587,2.84589 5.14774,5.58297 10.91835,5.58297 4.64497,0 7.40643,-2.84589 7.40643,-6.67669 0,-4.37859 -3.63944,-5.80248 -11.79627,-7.99178 -8.91104,-2.29813 -15.31571,-6.02009 -15.31571,-13.90115 0,-5.14589 1.75972,-9.4138 6.52851,-12.47917 5.02018,-3.17418 8.53203,-3.94148 13.80738,-3.94148 6.77609,0 10.91834,1.31321 13.17704,2.29997 1.88349,0.7654 2.13864,1.31322 2.26619,2.07861 0,0 1.75594,8.10058 1.75594,8.10058 z"
       inkscape:connector-curvature="0" />
    <path
       id="path4753"
       style="fill:#ffffff;fill-opacity:1;fill-rule:nonzero;stroke:none"
       d="m 564.88665,231.44282 c 0,8.97663 3.88711,10.94646 6.90367,10.94646 2.63393,0 4.51743,-0.32811 6.52851,-1.31321 0.37535,-0.21946 0.7504,-0.21946 1.1256,0.4371 0,0 0.87798,1.64151 0.87798,1.64151 0.38267,0.54778 0,1.09557 -0.49528,1.42386 -2.13864,1.31322 -7.78913,4.37862 -17.57438,4.37862 -8.53952,0 -13.93493,-5.14589 -13.93493,-10.18107 0,-3.8308 0.24743,-12.14899 0.24743,-16.30997 0,0 0.12755,-14.44894 0.12755,-14.44894 0,0 -6.90367,0 -6.90367,0 -1.1256,0 -2.01109,-0.43713 -2.01109,-1.53273 0,-1.09369 0.75793,-1.86097 2.76149,-2.73708 4.14222,-1.64151 14.69286,-9.85086 19.33031,-14.44894 0.88548,-0.87423 1.76347,-1.09372 2.38631,-1.09372 1.1331,0 1.63586,0.76543 1.63586,1.64151 0,0 -0.50276,11.60308 -0.50276,11.60308 0,0 15.93852,0 15.93852,0 0.75787,0 1.1331,0.54776 0.87795,0.98486 0,0 -1.25318,4.70691 -1.25318,4.70691 -0.12756,0.43898 -0.37535,0.87611 -1.1256,0.87611 0,0 -14.69286,0 -14.69286,0 -0.24743,4.4874 -0.24743,9.74206 -0.24743,14.77724 0,0 0,8.6484 0,8.6484 z"
       inkscape:connector-curvature="0" />
    <path
       id="path4755"
       style="fill:#ffffff;fill-opacity:1;fill-rule:nonzero;stroke:none"
       d="m 608.43993,222.68561 c -6.15331,3.06541 -11.29354,4.70692 -11.29354,12.25968 0,5.03518 2.63389,7.1157 5.39537,7.2245 3.3918,-0.21945 5.89817,-2.95469 5.89817,-3.93961 0,0 0,-15.54457 0,-15.54457 z m -0.12756,-10.18103 c 0,-2.18933 -0.24773,-4.70692 -1.88349,-6.02013 -1.25316,-0.98489 -3.25674,-1.31315 -5.26783,-1.31315 -2.25872,0 -4.39733,0.43707 -6.65606,1.75216 -1.88349,1.09372 -0.37498,2.95469 -0.37498,6.45717 0,3.72199 -3.13668,6.23961 -8.15686,6.23961 -2.88904,0 -5.39538,-1.5327 -5.39538,-3.93961 0,-2.40881 0.87799,-5.69367 3.51188,-7.66345 5.27529,-4.15909 13.93494,-8.10058 24.10285,-8.10058 8.0293,0 10.16794,1.0956 12.80184,3.17418 2.76145,2.18933 3.51188,5.36538 3.51188,9.30499 0,0 0.25511,21.78412 0.25511,21.78412 0.11987,5.69177 0.50279,7.44209 2.88154,7.44209 1.76347,0 3.14418,-1.20253 3.64697,-1.96981 0.49528,-0.65659 0.87798,-0.76539 1.25315,-0.54778 0,0 1.75594,0.87608 1.75594,0.87608 0.50276,0.21946 0.87799,0.54778 0.37535,1.5327 -1.12559,2.2981 -4.89262,7.44399 -12.67425,7.44399 -4.90012,0 -9.5451,-1.53273 -11.92385,-6.67668 0,0 -0.63037,0 -0.63037,0 -3.13665,2.51758 -5.77805,4.04841 -10.79823,5.69176 -2.50637,0.7654 -5.3954,0.98492 -9.03481,0.98492 -4.38987,0 -8.28445,-4.1591 -8.28445,-10.07038 0,-4.81757 2.6339,-9.85278 10.79826,-13.35528 9.78524,-4.05029 12.92189,-5.25464 16.18613,-7.22447 0,0 0,-5.80245 0,-5.80245 z"
       inkscape:connector-curvature="0" />
    <path
       id="path4757"
       style="fill:#ffffff;fill-opacity:1;fill-rule:nonzero;stroke:none"
       d="m 657.6437,239.10439 c 0,3.3937 1.25315,4.48927 3.89458,4.48927 0,0 5.14773,0 5.14773,0 0.75037,0 0.87799,0.32848 0.87799,0.98488 0,0 0,2.18933 0,2.18933 0,0.65656 -0.12756,0.98489 -0.63035,0.98489 -0.75042,0 -6.52847,-0.32852 -17.82204,-0.32852 -9.66513,0 -14.94048,0.32852 -15.69085,0.32852 -0.50278,0 -0.75793,-0.21946 -0.75793,-1.0937 0,0 0,-2.08052 0,-2.08052 0,-0.76727 0.25511,-0.98488 1.38074,-0.98488 0,0 3.63944,0 3.63944,0 1.88353,0 3.01663,-0.65659 3.26424,-2.62827 0.25511,-3.0635 0.25511,-6.89618 0.25511,-12.36849 0,0 0,-9.08547 0,-9.08547 0,-4.70688 -1.25315,-6.67671 -5.02018,-8.53768 0,0 -2.13864,-1.0956 -2.13864,-1.0956 -0.7504,-0.32851 -0.99804,-0.54781 -0.99804,-0.98489 0,0 0,-0.98488 0,-0.98488 0,-0.43901 0.24774,-0.65663 0.99804,-0.87611 0,0 17.57441,-6.67669 17.57441,-6.67669 0.75786,-0.21946 1.25315,-0.43898 2.01102,-0.43898 0.87798,0 1.38077,0.65659 1.50833,1.31322 0,0 1.12559,8.53952 1.12559,8.53952 0,0 0.87799,0 0.87799,0 3.89458,-7.22447 9.41751,-10.50936 14.94048,-10.50936 3.76702,0 6.64856,2.51759 6.64856,6.34839 0,2.9566 -3.88708,6.23958 -8.0293,6.23958 -1.75594,0 -3.39183,-0.32848 -4.51743,-0.98488 -1.00554,-0.54782 -2.13864,-0.76543 -3.14418,-0.76543 -1.25315,0 -2.50631,0.54781 -3.26423,1.96983 -1.62836,2.9547 -2.13111,5.03515 -2.13111,6.45905 0,0 0,20.57787 0,20.57787 z"
       inkscape:connector-curvature="0" />
    <path
       id="path4759"
       style="fill:#b2bdce;fill-opacity:1;fill-rule:nonzero;stroke:none"
       d="m 255.72344,287.8354 c 0.27018,0 0.47273,0.0599 0.47273,0.47088 0.13524,1.81972 1.07685,4.34484 2.69398,6.63541 1.95475,2.70142 5.25276,3.99401 8.48325,3.99401 3.23424,0 8.4195,-1.87974 8.4195,-6.5191 0,-4.87384 -1.07681,-6.28274 -9.83024,-9.16049 -2.02233,-0.64725 -6.33339,-2.527 -9.76649,-5.11024 -2.35997,-1.81975 -3.36552,-4.9339 -3.36552,-8.33882 0,-3.58319 1.00555,-5.99197 5.05018,-8.63336 3.03163,-1.99796 5.59049,-2.81964 9.69519,-2.81964 4.91512,0 7.54154,0.70534 8.95978,1.17435 0.67159,0.23452 1.14435,0.11833 1.54583,-0.29292 0,0 0.87799,-0.76352 0.87799,-0.76352 0.27017,-0.23637 0.60781,-0.3527 1.00926,-0.3527 0.47275,0 0.60409,0.64531 0.67162,0.99801 0,0 1.08057,10.04223 1.08057,10.04223 0,0.23421 -0.13524,0.29476 -0.3377,0.3527 0,0 -1.48205,0.41082 -1.48205,0.41082 -0.33386,0.11834 -0.67162,0 -0.87421,-0.41082 -0.7429,-1.70341 -1.88724,-3.99401 -4.176,-6.10828 -1.68463,-1.64335 -3.70325,-2.46694 -6.73484,-2.46694 -5.05021,0 -7.13632,3.81768 -7.13632,5.34476 0,2.17429 0.0639,3.93583 1.74844,5.40288 1.74844,1.58707 5.5905,2.99594 8.89223,3.81764 3.23049,0.82355 5.85692,2.2906 8.6184,4.46302 2.62636,2.05611 3.70318,4.64123 3.70318,8.75152 0,7.16447 -5.86063,12.98008 -14.74908,12.98008 -6.0595,0 -9.22621,-0.88171 -12.05522,-2.52697 -0.80668,-0.469 -1.2119,-0.64534 -1.54579,-0.64534 -0.40523,0 -0.67538,0.41083 -1.0806,0.99801 -0.4052,0.64722 -0.7429,0.7054 -1.21188,0.7054 -0.73918,0 -1.00932,-0.29476 -0.94176,-0.93988 0,0 1.07679,-11.15846 1.07679,-11.15846 0.0676,-0.41085 0.26617,-0.41085 0.53656,-0.41085 0,0 1.75219,0.11649 1.75219,0.11649 z"
       inkscape:connector-curvature="0" />
    <path
       id="path4761"
       style="fill:#b2bdce;fill-opacity:1;fill-rule:nonzero;stroke:none"
       d="m 324.48642,278.32221 c 3.09915,0 6.0595,-0.17643 6.86618,-0.3527 1.14806,-0.23422 2.08983,-0.76353 3.09915,-1.81969 0.7429,-0.88177 1.54957,-2.527 1.54957,-3.64134 0,-0.41086 0.20256,-0.52904 0.53654,-0.52904 0,0 1.82347,0.17643 1.82347,0.17643 0.33389,0.0581 0.60406,0.11649 0.5365,0.469 -0.20255,0.99802 -0.20255,4.05214 -0.20255,6.10825 0,2.6433 0.27017,5.46106 0.40523,6.69547 0.0676,0.3527 -0.20256,0.41082 -0.54032,0.469 0,0 -1.6171,0.29477 -1.6171,0.29477 -0.27018,0.0581 -0.4052,-0.0581 -0.53651,-0.47089 -0.27017,-0.93801 -0.94176,-2.28875 -1.34699,-2.99412 -0.7429,-1.11623 -2.35625,-1.87975 -3.70696,-2.05611 -1.816,-0.23452 -3.90211,-0.3527 -6.86618,-0.3527 0,0 0,3.525 0,3.525 0,3.17043 0.33773,8.86786 0.33773,9.92408 0,3.05412 0.73912,4.11216 1.61336,4.46486 1.01301,0.3508 2.28869,0.52713 5.65802,0.52713 1.14434,0 3.97338,-0.0581 5.38787,-0.17642 1.34697,-0.11649 3.36927,-0.70347 5.11771,-1.93787 1.75222,-1.23253 5.52296,-4.87387 6.86995,-6.28274 0.27018,-0.23636 0.46901,-0.29476 0.6716,-0.17643 0,0 1.14812,0.58719 1.14812,0.58719 0.27018,0.11649 0.3377,0.29261 0.27018,0.46901 0,0 -3.0316,8.86782 -3.0316,8.86782 -0.20255,0.52907 -0.67537,0.88177 -1.48205,0.88177 -0.3377,0 -1.81974,-0.0581 -6.12702,-0.11834 -4.38234,0 -11.51869,-0.0581 -23.1724,-0.0581 -2.49134,0 -4.3748,0.0581 -5.7218,0.0581 -1.41449,0.0599 -2.29247,0.11834 -2.89653,0.11834 -0.46898,0 -0.60407,-0.17643 -0.60407,-0.64534 0,0 0,-1.23444 0,-1.23444 0,-0.3527 0.20256,-0.52903 0.67162,-0.52903 0,0 2.02231,0 2.02231,0 3.09915,0 3.36554,-0.41083 3.36554,-2.46506 0,0 0,-19.67549 0,-19.67549 0,-4.87387 -0.13524,-12.09837 -0.20255,-12.68553 -0.26618,-1.87978 -0.9417,-2.2906 -2.7577,-2.2906 0,0 -2.6264,0 -2.6264,0 -0.27017,0 -0.3377,-0.17643 -0.3377,-0.58719 0,0 0,-1.40886 0,-1.40886 0,-0.17643 0.0676,-0.41089 0.46901,-0.41089 1.48201,0 3.83827,0.17643 9.96904,0.17643 0,0 23.63763,-0.0599 23.63763,-0.0599 1.0806,0 2.35625,-0.11649 2.69395,-0.11649 0.3377,0 0.47276,0.11649 0.54025,0.29261 0.27018,0.82168 2.49138,8.86786 2.76149,9.45502 0.13524,0.29476 0.13524,0.41275 -0.20256,0.58721 0,0 -1.08057,0.47086 -1.08057,0.47086 -0.26617,0.11649 -0.60409,0.0581 -0.80667,-0.23452 -0.33389,-0.47089 -6.39717,-5.75558 -7.94675,-6.57913 -1.41449,-0.76353 -3.29801,-1.52705 -5.11773,-1.58523 0,0 -8.88851,-0.23452 -8.88851,-0.23452 0,0 -0.20256,17.0904 -0.20256,17.0904 z"
       inkscape:connector-curvature="0" />
    <path
       id="path4763"
       style="fill:#b2bdce;fill-opacity:1;fill-rule:nonzero;stroke:none"
       d="m 415.87398,283.72511 c 0,-5.22657 -0.0676,-8.10436 -0.20256,-11.0403 -0.0676,-2.2906 -0.40148,-8.04618 -0.60409,-8.92788 -0.4052,-1.4689 -2.02233,-2.2906 -3.57191,-2.2906 0,0 -2.15367,0 -2.15367,0 -0.3377,0 -0.40517,-0.17643 -0.40517,-0.52904 0,0 0,-1.46702 0,-1.46702 0,-0.29476 0.0676,-0.41088 0.60782,-0.41088 0.73915,0 2.89656,0.17643 7.87921,0.17643 4.03714,0 5.65802,-0.17643 6.39714,-0.17643 0.6041,0 0.67159,0.11649 0.67159,0.46901 0,0 0,1.40889 0,1.40889 0,0.29476 -0.0676,0.52904 -0.3377,0.52904 0,0 -1.88349,0 -1.88349,0 -1.14435,0 -1.81597,0.99801 -2.01859,3.1123 -0.47275,3.93583 -1.54957,17.20855 -1.54957,24.96018 0,0 0,10.04414 0,10.04414 0,0.87983 -0.0676,1.93787 -1.0093,1.93787 -1.01304,0 -1.88724,-0.29476 -2.62639,-0.93986 -1.14813,-0.93989 -4.44615,-4.05213 -8.48703,-8.22251 -4.84756,-4.99206 -10.23547,-10.62945 -11.51862,-11.92198 -1.14063,-1.17438 -10.43809,-11.27667 -11.98392,-13.21457 0,0 -0.54031,0 -0.54031,0 0,0 0,11.86386 0,11.86386 0,4.87381 0.60787,12.09831 0.67537,14.32888 0.13124,3.40683 1.34321,5.16836 4.17222,5.16836 0,0 1.68466,0 1.68466,0 0.46901,0 0.53657,0.17643 0.53657,0.52907 0,0 0,1.40886 0,1.40886 0,0.3527 -0.0676,0.47089 -0.53657,0.47089 -0.67162,0 -4.71625,-0.17643 -7.87918,-0.17643 -2.08989,0 -6.73484,0.17643 -7.41021,0.17643 -0.27018,0 -0.3377,-0.11834 -0.3377,-0.52904 0,0 0,-1.52708 0,-1.52708 0,-0.17642 0.0676,-0.3527 0.40519,-0.3527 0,0 2.35626,0 2.35626,0 1.4858,0 2.5589,-1.87787 2.89657,-5.8137 0.0676,-1.11625 0.60781,-10.51314 0.60781,-19.20466 0,0 0,-5.28466 0,-5.28466 0,-3.46498 -2.42378,-6.75547 -5.79308,-6.81365 0,0 -1.68091,-0.0581 -1.68091,-0.0581 -0.3377,0 -0.4052,-0.23452 -0.4052,-0.41083 0,0 0,-1.58523 0,-1.58523 0,-0.23636 0.0676,-0.3527 0.4052,-0.3527 0.33389,0 0.87424,0.0581 2.15367,0.0581 1.34696,0.0581 3.50438,0.11834 7.00123,0.11834 2.29248,0 4.31481,-0.11834 5.12149,-0.11834 0.8742,0 1.41452,0.23452 1.95477,0.76353 0.33389,0.3527 13.60102,14.50525 15.62338,16.67954 0.94173,0.99804 10.77572,11.74564 11.5149,12.50917 0,0 0.27018,0 0.27018,0 0,0 0,-5.3447 0,-5.3447 z"
       inkscape:connector-curvature="0" />
    <path
       id="path4765"
       style="fill:#b2bdce;fill-opacity:1;fill-rule:nonzero;stroke:none"
       d="m 451.90446,287.8354 c 0.27017,0 0.47275,0.0599 0.47275,0.47088 0.13524,1.81972 1.07304,4.34484 2.69393,6.63541 1.95105,2.70142 5.25282,3.99401 8.48331,3.99401 3.23046,0 8.41756,-1.87974 8.41756,-6.5191 0,-4.87384 -1.07491,-6.28274 -9.83211,-9.16049 -2.01855,-0.64725 -6.32961,-2.527 -9.76269,-5.11024 -2.36,-1.81975 -3.36932,-4.9339 -3.36932,-8.33882 0,-3.58319 1.00932,-5.99197 5.05024,-8.63336 3.03159,-1.99796 5.59043,-2.81964 9.6989,-2.81964 4.91512,0 7.54339,0.70534 8.95788,1.17435 0.67541,0.23452 1.14813,0.11833 1.54958,-0.29292 0,0 0.87424,-0.76352 0.87424,-0.76352 0.27017,-0.23637 0.60784,-0.3527 1.01307,-0.3527 0.469,0 0.60403,0.64531 0.67159,0.99801 0,0 1.07682,10.04223 1.07682,10.04223 0,0.23421 -0.13524,0.29476 -0.33773,0.3527 0,0 -1.47827,0.41082 -1.47827,0.41082 -0.3377,0.11834 -0.67534,0 -0.87799,-0.41082 -0.73912,-1.70341 -1.88349,-3.99401 -4.17406,-6.10828 -1.68845,-1.64335 -3.70703,-2.46694 -6.73862,-2.46694 -5.05018,0 -7.13632,3.81768 -7.13632,5.34476 0,2.17429 0.0676,3.93583 1.74844,5.40288 1.75219,1.58707 5.59046,2.99594 8.89226,3.81764 3.23424,0.82355 5.86251,2.2906 8.62396,4.46302 2.62639,2.05611 3.69949,4.64123 3.69949,8.75152 0,7.16447 -5.85691,12.98008 -14.74726,12.98008 -6.06325,0 -9.2299,-0.88171 -12.05891,-2.52697 -0.80296,-0.469 -1.20819,-0.64534 -1.54586,-0.64534 -0.40523,0 -0.67537,0.41083 -1.0806,0.99801 -0.40145,0.64722 -0.73912,0.7054 -1.20813,0.7054 -0.74289,0 -1.01304,-0.29476 -0.94548,-0.93988 0,0 1.08057,-11.15846 1.08057,-11.15846 0.0676,-0.41085 0.26618,-0.41085 0.53657,-0.41085 0,0 1.75216,0.11649 1.75216,0.11649 z"
       inkscape:connector-curvature="0" />
    <path
       id="path4767"
       style="fill:#b2bdce;fill-opacity:1;fill-rule:nonzero;stroke:none"
       d="m 542.55474,281.02363 c 0,-12.86187 -9.70269,-19.91 -15.35324,-19.91 -1.35071,0 -4.71997,-0.29292 -8.82467,3.17233 -3.97713,3.28861 -5.99572,9.45505 -5.99572,14.27073 0,15.03429 9.89777,20.37901 15.48826,20.37901 12.46417,0 14.68537,-13.09635 14.68537,-17.91207 z m -31.05158,16.85591 c -4.78004,-2.52512 -9.89777,-8.86789 -9.89777,-17.44307 0,-3.58319 1.08057,-9.16243 6.2658,-14.62343 5.92819,-6.28464 13.53724,-7.45899 19.59299,-7.45899 5.59049,0 10.77575,0.76352 16.43377,4.63935 5.11774,3.5231 9.22993,9.45505 9.22993,17.56125 0,4.28666 -1.55336,8.74964 -5.05021,12.85999 -4.38233,4.75754 -10.10038,8.28255 -20.74855,8.28255 -4.64501,0 -10.50564,-0.93989 -15.82596,-3.81765 z"
       inkscape:connector-curvature="0" />
    <path
       id="path4769"
       style="fill:#b2bdce;fill-opacity:1;fill-rule:nonzero;stroke:none"
       d="m 587.67635,280.43647 c 1.27565,0.0581 2.08611,0.0581 2.69392,0.0581 8.88473,0 10.97834,-7.39899 10.97834,-10.16047 0,-2.70142 -1.08057,-5.28467 -2.55884,-6.57725 -2.43131,-1.87975 -5.4554,-2.58325 -7.48152,-2.58325 -1.14057,0 -2.01855,0.11649 -2.55884,0.52713 -0.40522,0.23637 -0.60031,0.88177 -0.73539,1.58714 0,0 -0.33774,17.14852 -0.33774,17.14852 z m -9.43255,-6.34276 c 0,-4.34672 0,-8.10434 -0.0676,-9.69144 -0.0676,-1.93793 -0.93798,-2.93594 -1.88346,-2.93594 0,0 -2.69396,0 -2.69396,0 -0.3377,0 -0.4052,-0.17643 -0.4052,-0.41083 0,0 0,-1.58523 0,-1.58523 0,-0.29476 0.0676,-0.41088 0.4052,-0.41088 0.60784,0 2.69396,0.17643 10.03283,0.17643 3.77455,0 9.70271,-0.17643 12.4642,-0.17643 5.25279,0 9.15487,1.64341 11.91635,3.87583 2.42381,1.93793 3.84205,4.22853 3.84205,6.40095 0,7.45899 -6.40092,10.80575 -12.32908,11.27664 0,0 0,0.41082 0,0.41082 2.09364,0.58719 3.16668,1.70341 4.44989,3.11231 0.87046,0.93989 4.57742,6.1664 5.11771,6.87177 0.40523,0.52906 4.03716,4.99205 5.38788,6.34276 0.80295,0.76353 3.36179,1.23253 4.91512,1.23253 0.47278,0 0.54028,0.23637 0.54028,0.47088 0,0 0,1.4089 0,1.4089 0,0.3527 -0.0676,0.52904 -0.54028,0.52904 -0.54029,0 -2.2887,-0.17643 -7.47396,-0.17643 -1.95859,0 -4.44993,0.11833 -6.40095,0.17643 -2.01858,-1.35075 -6.19831,-8.16436 -7.33893,-10.16042 -2.2887,-3.99404 -5.05018,-8.33882 -8.28442,-8.33882 0,0 -2.28873,0 -2.28873,0 0,0 0,2.99407 0,2.99407 0,3.46498 0.20256,10.04223 0.33774,10.80575 0.13524,1.23444 0.66787,2.2906 1.68088,2.2906 0,0 2.76148,0 2.76148,0 0.47276,0 0.54032,0.17643 0.54032,0.47088 0,0 0,1.4089 0,1.4089 0,0.41085 -0.0676,0.52904 -1.08057,0.52904 -0.0676,0 -1.74844,-0.17643 -8.82473,-0.17643 -7.13632,0 -8.68212,0.17643 -9.42502,0.17643 -0.54031,0 -0.54031,-0.17643 -0.54031,-0.58722 0,0 0,-1.35072 0,-1.35072 0,-0.29476 0,-0.47088 0.3377,-0.47088 0,0 2.01858,0 2.01858,0 1.4858,0 2.69392,-0.41082 2.69392,-1.87787 0.13525,-5.8156 0.13525,-11.33479 0.13525,-16.91403 0,0 0,-5.69739 0,-5.69739 z"
       inkscape:connector-curvature="0" />
    <path
       id="path4771"
       style="fill:#b2bdce;fill-opacity:1;fill-rule:nonzero;stroke:none"
       d="m 643.16845,287.8354 c 0.27017,0 0.47278,0.0599 0.47278,0.47088 0.13494,1.81972 1.07304,4.34484 2.69393,6.63541 1.95102,2.70142 5.25276,3.99401 8.47953,3.99401 3.23424,0 8.41947,-1.87974 8.41947,-6.5191 0,-4.87384 -1.07307,-6.28274 -9.83024,-9.16049 -2.01859,-0.64725 -6.33339,-2.527 -9.76269,-5.11024 -2.36378,-1.81975 -3.36932,-4.9339 -3.36932,-8.33882 0,-3.58319 1.00554,-5.99197 5.05021,-8.63336 3.03162,-1.99796 5.59046,-2.81964 9.69515,-2.81964 4.91512,0 7.54152,0.70534 8.95979,1.17435 0.67537,0.23452 1.14809,0.11833 1.54582,-0.29292 0,0 0.87796,-0.76352 0.87796,-0.76352 0.27017,-0.23637 0.60784,-0.3527 1.01307,-0.3527 0.46523,0 0.60031,0.64531 0.66784,0.99801 0,0 1.08057,10.04223 1.08057,10.04223 0,0.23421 -0.13524,0.29476 -0.33773,0.3527 0,0 -1.47827,0.41082 -1.47827,0.41082 -0.3377,0.11834 -0.67534,0 -0.87798,-0.41082 -0.7429,-1.70341 -1.88347,-3.99401 -4.17223,-6.10828 -1.68838,-1.64335 -3.70696,-2.46694 -6.73859,-2.46694 -5.0502,0 -7.13628,3.81768 -7.13628,5.34476 0,2.17429 0.0676,3.93583 1.74841,5.40288 1.74844,1.58707 5.59049,2.99594 8.89226,3.81764 3.2342,0.82355 5.86063,2.2906 8.62211,4.46302 2.62637,2.05611 3.69947,4.64123 3.69947,8.75152 0,7.16447 -5.86064,12.98008 -14.74537,12.98008 -6.06327,0 -9.22996,-0.88171 -12.05893,-2.52697 -0.80296,-0.469 -1.20819,-0.64534 -1.54586,-0.64534 -0.40523,0 -0.67534,0.41083 -1.08057,0.99801 -0.40523,0.64722 -0.7429,0.7054 -1.20813,0.7054 -0.7429,0 -1.01304,-0.29476 -0.94551,-0.93988 0,0 1.0806,-11.15846 1.0806,-11.15846 0.0676,-0.41085 0.2628,-0.41085 0.53275,-0.41085 0,0 1.75595,0.11649 1.75595,0.11649 z"
       inkscape:connector-curvature="0" />
    <path
       id="path4775"
       style="fill:#b2bdce;fill-opacity:1;fill-rule:nonzero;stroke:none"
       d="m 63.632143,222.86757 c 0,-44.55691 36.124277,-80.6793 80.683087,-80.6793 44.55876,0 80.68308,36.12239 80.68308,80.6793"
       inkscape:connector-curvature="0" />
    <path
       id="path4777"
       style="fill:#ffffff;fill-opacity:1;fill-rule:nonzero;stroke:none"
       d="m 63.632143,223.05144 c 0,44.56816 36.124277,80.68308 80.683087,80.68308 44.55876,0 80.68308,-36.11492 80.68308,-80.68308"
       inkscape:connector-curvature="0" />
    <path
       id="path4779"
       style="fill:#072b61;fill-opacity:1;fill-rule:nonzero;stroke:none"
       d="m 135.6781,273.72035 c 0,3.96214 -3.20423,7.16635 -7.15882,7.16635 -3.96211,0 -7.16634,-3.20421 -7.16634,-7.16635 0,0 0,-104.98289 0,-104.98289 0,-3.96588 3.20423,-7.17384 7.16634,-7.17384 3.95459,0 7.15882,3.20796 7.15882,7.17384 0,0 0,104.98289 0,104.98289 z"
       inkscape:connector-curvature="0" />
    <path
       id="path4781"
       style="fill:#072b61;fill-opacity:1;fill-rule:nonzero;stroke:none"
       d="m 123.32652,214.05787 c 3.95459,0 7.16631,3.21174 7.16631,7.16448 0,3.9621 -3.21172,7.16631 -7.16631,7.16631 0,0 -63.191258,0 -63.191258,0 -3.960233,0 -7.164464,-3.20421 -7.164464,-7.16631 0,-3.95274 3.204231,-7.16448 7.164464,-7.16448 0,0 63.191258,0 63.191258,0 z"
       inkscape:connector-curvature="0" />
    <path
       id="path4783"
       style="fill:#072b61;fill-opacity:1;fill-rule:nonzero;stroke:none"
       d="m 152.63715,168.72993 c 0,-3.95835 3.21172,-7.16631 7.16634,-7.16631 3.96212,0 7.16631,3.20796 7.16631,7.16631 0,0 0,104.99042 0,104.99042 0,3.96214 -3.20419,7.16635 -7.16631,7.16635 -3.95462,0 -7.16634,-3.20421 -7.16634,-7.16635 0,0 0,-104.99042 0,-104.99042 z"
       inkscape:connector-curvature="0" />
    <path
       id="path4785"
       style="fill:#072b61;fill-opacity:1;fill-rule:nonzero;stroke:none"
       d="m 164.98877,228.39619 c -3.95463,0 -7.15886,-3.21174 -7.15886,-7.17384 0,-3.95274 3.20423,-7.16448 7.15886,-7.16448 0,0 63.19869,0 63.19869,0 3.96214,0 7.17385,3.21174 7.17385,7.16448 0,3.9621 -3.21171,7.17384 -7.17385,7.17384 0,0 -63.19869,0 -63.19869,0 z"
       inkscape:connector-curvature="0" />
    <flowRoot
       xml:space="preserve"
       id="flowRoot3029"
       style="font-size:40px;font-style:normal;font-weight:normal;fill:#000000;fill-opacity:1;stroke:none;font-family:Bitstream Vera Sans"><flowRegion
         id="flowRegion3031"><rect
           id="rect3033"
           width="338.88889"
           height="197.22223"
           x="186.11111"
           y="476.11111" /></flowRegion><flowPara
         id="flowPara3035" /></flowRoot>    <text
       xml:space="preserve"
       style="font-size:120.21982574px;font-style:normal;font-variant:normal;font-weight:normal;font-stretch:normal;text-align:start;line-height:125%;letter-spacing:0px;word-spacing:0px;writing-mode:lr-tb;text-anchor:start;fill:#b2bdce;fill-opacity:1;stroke:none;font-family:Colonna MT;-inkscape-font-specification:Colonna MT"
       x="30.881975"
       y="496.05984"
       id="text3817"
       sodipodi:linespacing="125%"
       transform="scale(1.2078306,0.82793067)"><tspan
         sodipodi:role="line"
         id="tspan3013"
         x="30.881975"
         y="496.05984">SensorVUE</tspan></text>
  </g>
</svg>
